<svg xmlns="http://www.w3.org/2000/svg" xml:space="preserve" id="Calque_1" x="0" y="0" viewBox="0 0 527.7 498.4">
<style>
.st0{fill:#1d3c85}.st1{fill:#46b1ab}
</style>
<g id="g59673" transform="translate(143.659 188.512)">
<path id="path59675" d="M198.7-112.8c-10.8-34.8-41.5-63.5-80.4-62.1-38.3 1.4-67.5 27.5-76.7 62.1 0 0 53.7-10.7 75 45.3v-88.8c.1 0 41-14.5 82.1 43.5" class="st0"/>
</g>
<g id="g59677" transform="translate(130.032 176.707)">
<path id="path59679" d="M126.8-26.8C116-61.7 85.3-90.4 46.5-88.9 8.1-87.5-21.1-61.4-30.2-26.8c0 0 53.7-10.7 75 45.2v-88.8s40.9-14.5 82 43.6" class="st1"/>
</g>
<g id="g59681" transform="translate(157.283 176.707)">
<path id="path59683" d="M270.6-26.8c-10.8-34.8-41.5-63.6-80.4-62.1-38.3 1.4-67.6 27.5-76.7 62.1 0 0 53.7-10.7 75 45.2v-88.8c.1 0 41-14.5 82.1 43.6" class="st1"/>
</g>
<g id="g59685" transform="translate(171.904 164.466)">
<path id="path59687" d="M347.8 62.2C337 27.4 306.3-1.3 267.4.1c-38.3 1.4-67.5 27.5-76.7 62.1 0 0 53.7-10.7 75 45.2V18.7s40.9-14.5 82.1 43.5" class="st0"/>
</g>
<g id="g59689" transform="translate(143.659 164.466)">
<path id="path59691" d="M198.7 62.2C187.9 27.4 157.2-1.3 118.3.1 80 1.6 50.8 27.7 41.7 62.2c0 0 53.7-10.7 75 45.2V18.7s40.8-14.5 82 43.5" class="st0"/>
</g>
<g id="g59693" transform="translate(115.412 164.466)">
<path id="path59695" d="M49.7 62.2C38.9 27.4 8.2-1.3-30.7.1-69 1.6-98.3 27.7-107.4 62.2c0 0 53.7-10.7 75 45.2V18.7S8.5 4.2 49.7 62.2" class="st0"/>
</g>
<g id="g59697" transform="translate(107.695 142.482)">
<path id="path59699" d="m8.9 222.2-3.5 4.4-4.1-3.7 3.7-4.5zm-7.5.9-3.5 4.3-4.1-3.7 3.7-4.4zm-1.4-22c3.4.9 7 1.1 7 5.2 0 1.2-1.2 4.1-4.2 6.5-5.3 4.5-11.1 5.3-14 5.3-6.7 0-10.1-4.3-10.1-10 0-5 1.4-7.9 3.7-11.6 2.1-3.3 2.2-3.4 2.6-3.4.6 0 .9.8.9 1.5 0 1.1-3 4.8-3 8.7 0 4.3 4.1 7.4 8.4 7.4 2.7 0 7.1-1.3 8.1-2.1-2-1.2-7.4-.4-7.4-4.4 0-1.1 1-4.3 3.7-7 2.1-2 3.7-2.9 9.2-4 .7.1 7.5 0 7.5 0v8H0z" class="st0"/>
</g>
<g id="g59701" transform="translate(107.952 145.854)">
<path id="path59703" d="M10.3 197.7v-8H18c-.1-.9-.7-1.7-.7-4.2s1.4-4.8 2.9-6.5c2-2.1 3.8-3.6 6.1-3.4 2.6.1 4.4.9 7.9 4 1.2.9 3.3 3.3 3.3 4.6-1.4-.2-5.1-2.5-8.4-2.5-.4 0-5.4.6-5.4 1.9 0 .2.4 2 2 3.9 1.3 1.6 3.4 3 5.8 3 5.6 0 7.1-1.4 7.9-1.4l.7.5-3.7 8.1z" class="st0"/>
</g>
<g id="g59705" transform="translate(114.19 150.21)">
<path id="path59707" d="M43.2 166c.1.7.9 8.8.9 16.2 0 1.9.6 3.2 2.1 3.2h5.5v8H41.5c-1 0-1.5-1.5-1.5-7.1 0 0-.4-8.1-1.1-12.7-.2-1.1-1.3-4.4-1.3-4.6s2-3 2.4-3.6c2-3.2 2-3.4 2.4-3.4.8.1.7 2.9.8 4" class="st0"/>
</g>
<g id="g59709" transform="translate(117.834 146.782)">
<path id="path59711" d="M62.5 190.9c-.1-2.4-2.2-4.2-3.2-4.2-1.2 0-2.8 1.1-3.5 1.8 2.3 1.5 6.7 2.4 6.7 2.4m2.1 6c-.8.3-1 5-2 5-.5 0-1.2-1-4-2.8-7.2-4.6-4.9-2.7-5.6-6.5-1.3 1.5-.6 4.2-3.5 4.2H46v-8h6.1c1.3-.3 1.8-2.8 3.4-5.5 1.7-2.8 4.4-3.2 5.2-3.2 3.1 0 3.7 3.2 4.2 4.5 1 3 1.9 3.6 1.9 4.2h7.6v8c.1 0-9-.1-9.8.1" class="st0"/>
</g>
<g id="g59713" transform="translate(122.191 149.99)">
<path id="path59715" d="m85.4 167.6-3.7 4.6-4.2-3.9 3.9-4.7zm-7.9.9-3.7 4.6-4.2-4 3.9-4.7zm4.6 25.1c-3.7 0-3.7-3-4.2-5.2-1.2.9-.5 5.2-4 5.2h-5.8v-8h8.3c.4-.2 1.6-7.2 3.8-7.2l.4.8c0 .5-.4.9-.4 2 0 2.9 2.5 4.1 2.5 4.4h5.8v8z" class="st0"/>
</g>
<g id="g59717" transform="translate(125.096 144.43)">
<path id="path59719" d="m100.8 208.1-4.1 5.1-4.7-4.3 4.3-5.3zm2-24.1c3.4 2.5 9.5 5.4 14.8 5.4 0 0 .1-.2.7-.2l-4.1 7.3-3-.7h-2.5c-3.1 0-7.9 3.4-9.4 3.4l-15.4-.1v-8h15.3s-2.3-1.4-3.2-1.9c0 0-3.5-1.9-5.5-1.9-2.1 0-2.3.3-3 .8l.1-.9c0-.5 2.9-8.1 7-8.1 3.1 0 6 3.3 8.2 4.9" class="st0"/>
</g>
<g id="g59721" transform="translate(129.642 144.864)">
<path id="path59723" d="m124.8 204.9-2.5 3.5c-.2 0-1.1-1.6-2.6-1.4l-1 .5c.4.8 1.5 2.1 5.3 2 1.8 0 2.1-.7 2.1 0-.2 1.5-1.1 2.6-1.2 3-1.2.2-3.3.2-5.5 1.8-.6.4-1.1 1-1.6 1.6-.2-.7.6-1.7 1.4-3.6-.9-.5-2.5-.9-2.7-2.9-.1-1.1.6-2.1 1.5-3 1.2-1.4 2-3.1 4.5-2.8.7-.1 2.3.3 2.3 1.3" class="st0"/>
</g>
<g id="g59725" transform="translate(131.411 147.127)">
<path id="path59727" d="M134.1 188.4c-.4-1.2-2.4-2.9-2.5-2.9l-4.1 2.9zm5.6-20.6c1 2.2 2.4 3.2 2.4 4l-1.9 4.2c-1.2 2.7-1.3 2.9-1.7 2.9-.6 0-.9-.6-1.6-1.1-.5.8-.6 1.2-1.7 3.1-1 1.7-.8 1-.8 1.3.1.6 3.8 3.9 3.8 6.8 0 2-.5 3.4-.5 6.7l-.3.7s-16.8.2-17.8-.1c-.1 0-1.3-.9-1.3-5.8 0 0 .1-3.5.6-4.1.6.8.5 2.4 1.4 1.9.8-.4 7.8-3 8.8-4.6l-7.3-5.4c-.6 2.2-.4 2.8-1.1 2.8-.1 0-1.4-1.4-2.6-2.7-2.5-2.8-3-2.8-3-4.1-.1-2.2.7-4.4.8-5.2.1-.5.3-2 .9-2 0 0 1 .5 4.7 2.9 3.3 2.2 7.7 5.5 10.7 9.7 3.6-4 2.3-7.7 2.4-8.6.2-.8 2.2-4.5 2.2-4.5 1-2.1 1.2-2.1 1.4-2.1.8 0 .7 1.4 1.5 3.3" class="st0"/>
</g>
<g id="g59729" transform="translate(134.265 150.453)">
<path id="path59731" d="M149.2 164.2c0 2.1.1 3.4.2 5.5.2 4.8.4 16.7.4 17.9s-2.8 4.7-4.3 6.4c-.6-1.2-.1-12.4-.5-18.7-.1-1.4 0-2-.1-5.5 0-.7.5-1.7 2-5 .1-.4 1.2-3.1 2-3.1.7.1.2 1.7.3 2.5" class="st0"/>
</g>
<g id="g59733" transform="translate(141.245 150.613)">
<path id="path59735" d="m186 163.1-4.1 5.1-4.7-4.4 4.3-5.3zm-4.9 17.9 4.1-7c.6.7 1.8 2.8 2.3 4.5.5 2 1.1 6.8 1.1 6.8 0 1.8.1 2.5-.1 4-.9 7.1-5 12.4-12.7 12.5-7 .1-10.6-4.7-10.6-10.7 0 0 .1-4.8 3.2-10.4.2-.5 1.6-3.7 3-3.7.3 0 .5.1.5.8 0 .4-2.1 4.6-2.1 8.1 0 3.1 2.2 6.4 7.8 6.4 4.8 0 6.4-.3 6.9-2.8 0-1.7-2.8-7.8-3.4-8.5" class="st0"/>
</g>
<g id="g59737" transform="translate(143.029 150.21)">
<path id="path59739" d="M195.4 166c.1.7 1 8.8 1 16.2 0 1.9.6 3.2 2.1 3.2h5.5v8h-10.3c-1 0-1.5-1.5-1.5-7.1 0 0-.4-8.1-1.1-12.7-.2-1.1-1.3-4.4-1.3-4.6s2-3 2.4-3.6c2-3.2 2-3.4 2.4-3.4.8.1.7 2.9.8 4" class="st0"/>
</g>
<g id="g59741" transform="translate(146.672 146.782)">
<path id="path59743" d="M214.6 190.9c-.1-2.4-2.2-4.2-3.2-4.2-1.2 0-2.8 1.1-3.5 1.8 2.4 1.5 6.7 2.4 6.7 2.4m2.2 6c-.9.3-1 5-2 5-.5 0-1.2-1-4-2.8-7.2-4.6-4.9-2.7-5.6-6.5-1.3 1.5-.6 4.2-3.5 4.2h-3.5v-8h6.1c1.3-.3 1.8-2.8 3.4-5.5 1.7-2.8 4.4-3.2 5.2-3.2 3 0 3.7 3.2 4.2 4.5 1 3 1.9 3.6 1.9 4.2h7.6v8c.1 0-9.1-.1-9.8.1" class="st0"/>
</g>
<g id="g59745" transform="translate(149.161 146.269)">
<path id="path59747" d="M227.8 194.7c-.4 1.1-.9 2.3-2.4 2.4-1.7.3-3.2.2-3.2.2v-8s1.6.1 5.4 0c-.3-3.7 2-6.8 2.9-6.9l.6.8s-.7 1.1-.7 3.5c.1 2.8.5 2.2 1.9 2.6 1.5.5 3.5.4 3.6.4v7.6c-.7.4-6.7.1-8.1-2.6" class="st0"/>
</g>
<g id="g59749" transform="translate(152.403 147.705)">
<path id="path59751" d="M244.9 184.2c-1.9 0-7.8 3.4-7.8 3.4l-.1.3h13.3c-.9-2-3.7-3.7-5.4-3.7m-6.5-10.4-4.7-4.4 4.3-5.3 4.5 4.5zm-10 21.9v-7.8c1 .3.9 0 2.4-.4 0 0 1.9-.9 5.1-3.1 1.2-.9 9.7-6.7 12.7-7 5-.4 8.1 5.6 8.1 8.9l-.6 1.5h5.6v8c-4.2 0-30.7.5-33.3-.1" class="st0"/>
</g>
<g id="g59753" transform="translate(155.903 150.603)">
<path id="path59755" d="M263.4 163.1c0 1.1 0 1.4.8 2.8 1.3 2.2 3.3 1.6 3 3.9-.1 1.3-1.1 3.3-1.9 4.3l-.9.5s.8 6.1 1.1 9.9c.1 1.3 0 2.2 0 3.2 0 .8-.4 1.9-.7 2.8-.5 1.4-1.1 2.4-3.1 2.4h-5.3v-8h4.7v-.9c-.4-1.2-.6-4.3-1.1-8.8-.4-3-1.4-4.2-1.5-5.8.1-3 4.5-8.4 4.5-8.4.5 1.1.3 1.7.4 2.1" class="st0"/>
</g>
<g id="g59757" transform="translate(157.919 150.453)">
<path id="path59759" d="M274 164.2c.1 2.1.2 3.4.2 5.5.2 4.8.4 16.7.4 17.9s-2.8 4.7-4.3 6.4c-.6-1.2-.1-12.4-.5-18.7-.1-1.4 0-2-.1-5.5 0-.7.5-1.7 2-5 .1-.4 1.2-3.1 2-3.1.7.1.2 1.7.3 2.5" class="st0"/>
</g>
<g id="g59761" transform="translate(112.981 134.169)">
<path id="path59763" d="M36.8 344.8h-.6l-.6-.1c-.4 0-1.5.3-3.1.9s-3.7 1.3-6.1 2.1q-3.75 1.2-8.4 2.1c-3.2.5-6.4.8-9.9.8-4.5 0-8.8-.4-13-1.2s-7.8-2.1-11-3.8-5.7-3.9-7.6-6.5-2.8-5.6-2.8-9.1c0-3.4.9-6.4 2.8-9s4.4-4.8 7.6-6.6 6.9-3.1 11-4 8.5-1.4 13-1.4c3.7 0 7 .3 9.9.6 3 .4 5.5.9 7.8 1.3 2.2.5 4 .9 5.3 1.3q1.95.6 2.4.6l.9-.4.6-.6 1.6.9-8.4 9.4-1.1-.6v-.5l-.2-.5c-.2-.6-.9-1.1-2.2-1.7s-2.9-1.1-4.8-1.6q-2.85-.75-6-1.2c-2.1-.3-4.1-.4-5.9-.4q-4.5 0-8.7.9c-2.8.6-5.1 1.5-7.2 2.7-2 1.2-3.7 2.6-4.9 4.4-1.2 1.7-1.9 3.7-1.9 6 0 2.2.6 4.2 1.9 5.9 1.2 1.8 2.8 3.2 4.9 4.4s4.4 2.1 7.2 2.7 5.6 1 8.7 1q3.45 0 7.2-.6t6.9-1.5c2.1-.6 3.8-1.3 5.2-2s2.1-1.5 2.1-2.1l-.4-.9 1.5-.6 7.1 8.3z" class="st0"/>
</g>
<g id="g59765" transform="translate(118.843 133.499)">
<path id="path59767" d="M67.8 349.7c1.3 0 2-.5 2-1.4V313c0-.9-.7-1.4-2-1.4v-1.4h18.4v1.4c-.6 0-.9.3-.9.8 0 .4.7 1.2 2.2 2.2l30.8 23.2V313c0-.9-.9-1.4-2.8-1.4v-1.4h16.2v1.4c-1.3 0-2 .5-2 1.4v35.3c0 .9.7 1.4 2 1.4v1.4h-17.4v-1.4c.9 0 1.4-.2 1.4-.7 0-.3-.6-.9-1.7-1.8l-32.8-24.7v25.8c0 .9.8 1.4 2.5 1.4v1.4H67.8z" class="st0"/>
</g>
<g id="g59769" transform="translate(135.652 135.323)">
<path id="path59771" d="m156.5 336.4 1.1.4.4 1.2q.75.9 3 1.8c1.5.6 3.2 1.1 5.1 1.6s3.9.8 6 1.1 3.9.4 5.6.4c1.2 0 2.8-.1 4.7-.2 2-.1 3.8-.4 5.7-.8s3.5-1 4.9-1.7 2.1-1.7 2.1-2.9-.7-2.1-1.9-2.7c-1.3-.5-2.9-1-5-1.2-2.1-.3-4.4-.4-7-.5s-5.3-.2-8-.4-5.4-.4-8-.8-4.9-1-7-1.8c-2-.8-3.7-2-4.9-3.5s-1.9-3.4-1.9-5.8c0-1.6.5-3.2 1.6-4.7 1-1.6 2.6-2.9 4.8-4.1 2.1-1.2 4.9-2.2 8.2-2.9 3.3-.8 7.2-1.2 11.6-1.2 3.8 0 7.1.3 9.9.6 2.8.4 5.2.9 7.3 1.3 2.1.5 3.7.9 5.1 1.3s2.6.6 3.5.6c1 0 1.7-.2 2.1-.5l1.3.6-7.4 9.7-1.1-.3c-.1-.7-.4-1.3-.8-1.8-.6-.6-1.5-1.2-2.9-1.8-1.3-.6-2.9-1.2-4.7-1.6-1.8-.5-3.7-.8-5.8-1.1s-4.2-.4-6.3-.4c-1.6 0-3.2.1-4.9.3s-3.2.4-4.6.8-2.5.9-3.4 1.5-1.4 1.3-1.4 2.2c0 1.2.6 2.2 1.9 2.8 1.2.6 2.9 1.1 4.9 1.4s4.4.5 7 .6 5.3.2 8 .4 5.4.4 8 .8 4.9 1 7 1.9c2 .9 3.7 2 5 3.5 1.2 1.5 1.9 3.4 1.9 5.7q0 4.05-3 6.6c-2 1.7-4.5 3.1-7.4 4.1-3 1-6.1 1.6-9.5 2-3.4.3-6.6.5-9.5.5-4.1 0-7.5-.1-10.3-.5s-5.1-.8-6.9-1.3-3.3-.9-4.3-1.3c-1.1-.4-2-.6-2.8-.6l-1.4.6-1.5-.6z" class="st0"/>
</g>
<g id="g59773" transform="translate(149.979 135.323)">
<path id="path59775" d="m232.1 336.4 1.1.4.4 1.2q.75.9 3 1.8c1.5.6 3.2 1.1 5 1.6 1.9.5 3.9.8 6 1.1s3.9.4 5.6.4c1.2 0 2.8-.1 4.7-.2s3.8-.4 5.7-.8 3.5-1 4.8-1.7c1.4-.7 2-1.7 2-2.9s-.6-2.1-1.9-2.7c-1.3-.5-2.9-1-5-1.2-2-.3-4.4-.4-7-.5s-5.3-.2-8-.4-5.4-.4-8-.8-5-1-7-1.8-3.7-2-4.9-3.5-1.9-3.4-1.9-5.8c0-1.6.5-3.2 1.5-4.7 1.1-1.6 2.6-2.9 4.8-4.1 2.1-1.2 4.8-2.2 8.2-2.9 3.3-.8 7.2-1.2 11.6-1.2 3.8 0 7.1.3 9.9.6 2.8.4 5.2.9 7.2 1.3 2.1.5 3.8.9 5.2 1.3s2.6.6 3.5.6c1 0 1.8-.2 2.2-.5l1.3.6-7.4 9.7-1.1-.3c-.1-.7-.5-1.3-.9-1.8-.6-.6-1.5-1.2-2.8-1.8-1.4-.6-2.9-1.2-4.7-1.6-1.8-.5-3.7-.8-5.8-1.1s-4.2-.4-6.3-.4c-1.6 0-3.2.1-4.9.3s-3.2.4-4.5.8c-1.4.4-2.5.9-3.4 1.5s-1.3 1.3-1.3 2.2c0 1.2.6 2.2 1.9 2.8 1.2.6 2.9 1.1 4.9 1.4s4.4.5 7 .6 5.3.2 8 .4 5.4.4 8 .8 5 1 7 1.9c2.1.9 3.7 2 5 3.5 1.2 1.5 1.9 3.4 1.9 5.7q0 4.05-3 6.6c-2 1.7-4.4 3.1-7.4 4.1s-6.1 1.6-9.5 2c-3.4.3-6.6.5-9.5.5-4.1 0-7.5-.1-10.3-.5s-5-.8-6.9-1.3c-1.8-.5-3.3-.9-4.3-1.3-1.1-.4-2-.6-2.8-.6l-1.4.6-1.5-.6z" class="st0"/>
</g>
<path d="M96.1 397.1h-8.3v-15.2h-5.6v15.2h-8.3v5.6h8.3v15.2h5.6v-15.2h8.3zm6.5 3.6c-2.4 0-4.4.8-6 2.5s-2.5 3.7-2.5 6.1.8 4.5 2.5 6.1c1.6 1.7 3.7 2.5 6 2.5 2.4 0 4.5-.8 6.1-2.5 1.6-1.6 2.5-3.7 2.5-6.1s-.8-4.5-2.5-6.1-3.7-2.5-6.1-2.5m2.7 11.4c-.8.8-1.7 1.1-2.7 1.1s-1.9-.4-2.7-1.1c-.8-.8-1.1-1.7-1.1-2.8 0-1.2.4-2.1 1.1-2.9.8-.8 1.6-1.1 2.7-1.1s2 .4 2.7 1.1c.8.8 1.1 1.7 1.1 2.9 0 1.1-.3 2-1.1 2.8m8.8-30.2h5.6v35.9h-5.6zm32.1 5.6h6.3v-5.6h-11.9v15h-5.4v-15h-11.8v5.6h6.2v24.8h-6.4v5.6h12v-15.4h5.4v15.4h12v-5.6h-6.4zm29.5-5.6c-4.9 0-9.1 1.8-12.5 5.3s-5.1 7.9-5.1 12.9c0 4.9 1.8 9.1 5.2 12.5s7.6 5.2 12.4 5.2c4.9 0 9.1-1.7 12.5-5.2 3.4-3.4 5.2-7.6 5.3-12.5 0-5-1.7-9.3-5.2-12.9-3.4-3.5-7.7-5.3-12.6-5.3m12.1 18.1c-.1 3.3-1.4 6.1-3.7 8.5-2.4 2.4-5.1 3.6-8.3 3.7-3.3 0-6.1-1.3-8.3-3.6-2.3-2.4-3.5-5.2-3.6-8.5 0-3.5 1.2-6.5 3.5-8.9s5.2-3.7 8.6-3.7h.3c3 0 5.7 1.2 8 3.6 2.3 2.5 3.5 5.5 3.5 8.9m19.9 1.7c-2.4 0-4.4.8-6 2.3-1.6 1.6-2.5 3.5-2.5 5.7s.8 4.1 2.5 5.7c1.6 1.5 3.7 2.3 6 2.3 2.4 0 4.4-.8 6.1-2.3 1.6-1.5 2.5-3.5 2.5-5.7s-.8-4.2-2.5-5.7c-1.6-1.5-3.7-2.3-6.1-2.3m-2.8 5.2c.8-.8 1.7-1.2 2.8-1.2 1.2 0 2.1.4 2.9 1.2s1.2 1.7 1.2 2.9c0 1.1-.4 2.1-1.2 2.8-.8.8-1.7 1.2-2.9 1.2-1.1 0-2-.4-2.8-1.2s-1.2-1.7-1.2-2.8c0-1.2.4-2.1 1.2-2.9m3-25c-2.3 0-4.4.8-6 2.3-1.6 1.6-2.5 3.5-2.5 5.8 0 2.2.8 4.1 2.5 5.7 1.6 1.5 3.7 2.3 6 2.3 2.4 0 4.4-.8 6.1-2.3 1.6-1.5 2.5-3.5 2.5-5.7 0-2.3-.8-4.2-2.5-5.8-1.7-1.5-3.7-2.3-6.1-2.3m-2.8 5.2c.8-.8 1.7-1.2 2.8-1.2 1.2 0 2.1.4 2.9 1.2s1.2 1.7 1.2 2.9c0 1.1-.4 2.1-1.2 2.8-.8.8-1.7 1.2-2.9 1.2-1.1 0-2-.4-2.8-1.2s-1.2-1.7-1.2-2.8c0-1.2.4-2.1 1.2-2.9m28-5.2h-5.7v15.2h-8.3v5.6h8.3v15.2h5.7v-15.2h8.2v-5.6h-8.2zm49.1 0h-5.7v15.2h-8.3v5.6h8.3v15.2h5.7v-15.2h8.2v-5.6h-8.2zm21.3 18.8c-2.4 0-4.4.8-6 2.5s-2.5 3.7-2.5 6.1.8 4.5 2.5 6.1c1.6 1.7 3.7 2.5 6 2.5 2.4 0 4.5-.8 6.1-2.5 1.6-1.6 2.5-3.7 2.5-6.1s-.8-4.5-2.5-6.1c-1.6-1.6-3.7-2.5-6.1-2.5m2.7 11.4c-.8.8-1.7 1.1-2.7 1.1s-1.9-.4-2.7-1.1c-.8-.8-1.1-1.7-1.1-2.8 0-1.2.4-2.1 1.1-2.9s1.6-1.1 2.7-1.1 2 .4 2.7 1.1c.8.8 1.1 1.7 1.1 2.9.1 1.1-.3 2-1.1 2.8m8.9-30.2h5.6v35.9h-5.6zm18.5 18.8c-2.4 0-4.4.8-6 2.5s-2.5 3.7-2.5 6.1.8 4.5 2.5 6.1c1.6 1.7 3.7 2.5 6 2.5 2.4 0 4.5-.8 6.1-2.5 1.6-1.6 2.5-3.7 2.5-6.1s-.8-4.5-2.5-6.1c-1.6-1.6-3.7-2.5-6.1-2.5m2.7 11.4c-.8.8-1.7 1.1-2.7 1.1s-1.9-.4-2.7-1.1c-.8-.8-1.1-1.7-1.1-2.8 0-1.2.4-2.1 1.1-2.9s1.6-1.1 2.7-1.1 2 .4 2.7 1.1c.8.8 1.1 1.7 1.1 2.9.1 1.1-.3 2-1.1 2.8m8.9 5.8h27v-5.6h-21.3v-24.7h21.3v-5.7h-27zm40.7-16.2c-2.4 0-4.4.8-6 2.3-1.6 1.6-2.5 3.5-2.5 5.7s.8 4.1 2.5 5.7c1.6 1.5 3.7 2.3 6 2.3 2.4 0 4.4-.8 6.1-2.3 1.6-1.5 2.5-3.5 2.5-5.7s-.8-4.2-2.5-5.7-3.7-2.3-6.1-2.3m-2.9 5.2c.8-.8 1.7-1.2 2.8-1.2 1.2 0 2.1.4 2.9 1.2s1.2 1.7 1.2 2.9c0 1.1-.4 2.1-1.2 2.8-.8.8-1.7 1.2-2.9 1.2-1.1 0-2-.4-2.8-1.2s-1.2-1.7-1.2-2.8c0-1.2.4-2.1 1.2-2.9m3-25c-2.3 0-4.4.8-6 2.3-1.6 1.6-2.5 3.5-2.5 5.8 0 2.2.8 4.1 2.5 5.7 1.6 1.5 3.7 2.3 6 2.3 2.4 0 4.4-.8 6.1-2.3 1.6-1.5 2.5-3.5 2.5-5.7 0-2.3-.8-4.2-2.5-5.8-1.6-1.5-3.7-2.3-6.1-2.3m-2.8 5.2c.8-.8 1.7-1.2 2.8-1.2 1.2 0 2.1.4 2.9 1.2s1.2 1.7 1.2 2.9c0 1.1-.4 2.1-1.2 2.8-.8.8-1.7 1.2-2.9 1.2-1.1 0-2-.4-2.8-1.2s-1.2-1.7-1.2-2.8c0-1.2.4-2.1 1.2-2.9m15-5.2h5.6v35.9h-5.6zm24.3 15.2v-15.2h-5.7v15.2h-8.3v5.6h8.3v15.2h5.7v-15.2h8.2v-5.6z" class="st0"/>
</svg>
