<svg xmlns="http://www.w3.org/2000/svg" viewBox="0 0 1612.51 1447.85">
<defs>
<style>
.cls-1{fill:#1a428a}
</style>
</defs>
<g id="Layer_2" data-name="Layer 2">
<g id="Layer_1-2" data-name="Layer 1">
<path d="M839.64 35.36h-16.53v17.71h-35.86v17.71H733.5L804.28 0zm79.74 79.73h-68.47v17.71h-93.26v17.71H653.77l61.99-61.99H892.8zm79.73 79.74h-120.2v17.71H729.65v17.73H574.01l62.02-62.02h336.5zm79.73 79.73H906.91v17.71H701.22V310H494.28l62.02-62.02h495.96zm79.73 79.73H934.9V372H673.8v17.74H414.55l62.02-62.03h655.42zm79.73 79.73H962.9v17.71H646.4v17.74H334.81l62.03-62.03h814.89zm70.62 70.62-9.11 9.11H978.29v17.71H643.84v17.74H344.2l-44.56-44.56 17.47-17.46h974.35zm-62.27 62.27-26.57 26.58H950.92v17.7H670.71v17.74H423.93l-62.02-62.02zm-79.73 79.73-26.58 26.58H922.3v17.7H698.71v17.74H503.66l-62.02-62.02zm-79.73 79.73-26.58 26.58H894.3v17.71H726.71v17.73H583.37l-62-62.02zm-79.7 79.73-26.58 26.58H867.42v17.71H754.7v17.74h-91.6l-62.02-62.03zm-79.74 79.73-26.57 26.58h-62.87v17.71H782.7v17.74h-39.87l-62.02-62.03zm-79.73 79.74-43.74 43.74-43.74-43.74zm434.08-434.11-.11.11v-.11zM74.23 1298.45a8.3 8.3 0 0 0-6.09 2.48 8.07 8.07 0 0 0-2.48 5.92 8.49 8.49 0 0 0 8.57 8.57 8.07 8.07 0 0 0 5.91-2.49 8.25 8.25 0 0 0 2.49-6.08 8.49 8.49 0 0 0-8.4-8.4m108.32-36.51a6 6 0 0 1-1.71 4.46 6.23 6.23 0 0 1-4.8 2h-32.23a15.2 15.2 0 0 0 .52-4.11v-62.56h-14.57v60.16a6.4 6.4 0 0 1-1.54 4.46 6.77 6.77 0 0 1-5 2H35a16.4 16.4 0 0 1-11.83-4.8 15.4 15.4 0 0 1-4.63-11.31v-38.22h-7.2l-7.37 6v32.22q0 13.73 10 21.94a25.2 25.2 0 0 0 17 6.34h98a14.77 14.77 0 0 0 12-6h.34l5.66 6h34.62a14.65 14.65 0 0 0 11.49-5.31 16 16 0 0 0 4.11-11v-62.56h-14.64Zm1.54-92.04a10 10 0 0 1-2.05-6.17q0-9.09 8.74-9.08a24.3 24.3 0 0 1 6.17.85v-7a26.8 26.8 0 0 0-8.23-1.38q-6.69 0-10.54 4.12t-3.86 11.14a17.16 17.16 0 0 0 3.43 10.8h-7.37v7h28.8l3.25-4.12v-2.91h-11a9.16 9.16 0 0 1-7.34-3.25m51.25-12h-14.57v127.01h7.2l7.37-6zm161.29 23.1a8.07 8.07 0 0 0 5.91-2.49 8.27 8.27 0 0 0 2.48-6.08 8.49 8.49 0 0 0-8.39-8.4 8 8 0 0 0-6 2.49 8.2 8.2 0 0 0-2.4 5.91 8.36 8.36 0 0 0 2.4 6.08 8 8 0 0 0 6 2.49" class="cls-1"/>
<path d="M538.71 1261.94a6.6 6.6 0 0 1-1.54 4.29 5.9 5.9 0 0 1-5 2.22H500a17 17 0 0 0 .51-4.11V1157.9h-14.59v104a6.6 6.6 0 0 1-6.51 6.51h-29.14a15.2 15.2 0 0 0 .52-4.11v-22.79q0-17.65-11.14-29.14-12.34-12.69-32.74-12.69-38.4 0-62.05 39.77l.17-37.71h-14.56l.17 66.67h-38.39v-66.67h-14.57v76.79q0 30.86-33.6 30.85a79 79 0 0 1-10.8-.69v5.49l5.66 7q4.45.18 7.37.18 18.85 0 30.68-8.75 14.75-10.62 15.26-32.05h143.11a14.77 14.77 0 0 0 12-6h.51l4.8 6h32.22a14.45 14.45 0 0 0 12-6h.52l5.65 6h34.62a14.67 14.67 0 0 0 11.15-5 15.67 15.67 0 0 0 4.45-11.31V1157.9h-14.57Zm-102.49 0q0 6.51-6.52 6.51h-84.84q13-35.29 34.63-48.85a46 46 0 0 1 25-7.36q13.37 0 21.6 6.51 9.93 7.55 10.11 21.25ZM669.66 1181a8.5 8.5 0 0 0 8.57-8.57 8.07 8.07 0 0 0-2.49-5.91 8.26 8.26 0 0 0-6.08-2.49 8.49 8.49 0 0 0-8.4 8.4 8.27 8.27 0 0 0 2.48 6.08 8.08 8.08 0 0 0 5.92 2.49m-20.74 0a8.07 8.07 0 0 0 5.91-2.49 8.25 8.25 0 0 0 2.49-6.08 8.4 8.4 0 0 0-16.8 0 8.27 8.27 0 0 0 2.48 6.08 8.08 8.08 0 0 0 5.92 2.49m101.29 18.89q-13.37 0-21.42 5.32-12.35 8.22-12.34 25.71v31a6.44 6.44 0 0 1-6.51 6.51h-26.57a4.56 4.56 0 0 1-3.43-1.71 6.5 6.5 0 0 1-1.71-4.8v-64.79H671l-7.37 5.83a44.9 44.9 0 0 0-18.34-4.11 36.28 36.28 0 0 0-26.88 11.15q-12.35 12.33-12.34 31 0 15.95 8.57 27.42 10.46 14.07 28.45 14.06a40.8 40.8 0 0 0 24-7.88 15 15 0 0 0 12.51 6h35.48a14.8 14.8 0 0 0 12.34-6 29.76 29.76 0 0 0 24 11.14 32.87 32.87 0 0 0 26.06-12q11-12.86 11-31.54 0-20.06-11-31.2t-27.27-11.11m-86.55 65.31q-10.12 5-19.37 5-10.8 0-17.14-7.2-6.51-7.87-6.51-21.6a30.94 30.94 0 0 1 6.68-19.88 25.5 25.5 0 0 1 21.08-10.28 33.85 33.85 0 0 1 15.26 3.77Zm103.78-.09a20 20 0 0 1-16.71 8.49q-10.8 0-19.71-9.09v-33.59q0-8.91 5.65-14.23 5-4.62 12.86-4.63 10.46 0 16.79 7.2 7.54 8.74 7.55 23.83 0 13.53-6.43 22.02m205.07-3.17a6.6 6.6 0 0 1-1.54 4.29 5.9 5.9 0 0 1-5 2.22h-55.5a42.37 42.37 0 0 1 9.77-21.08 52.4 52.4 0 0 1 19.37-13.54l1.54-4.11a47.29 47.29 0 0 0-43.36-30 46.4 46.4 0 0 0-23.49 6.52 46.88 46.88 0 0 0-20 23.48l1.72 4.11a50.6 50.6 0 0 1 20.56 14.91 48 48 0 0 1 8.57 19.71H829.4a6.5 6.5 0 0 1-4.8-1.88 6.64 6.64 0 0 1-1.71-4.63v-104h-14.57v106.44a15.93 15.93 0 0 0 5.82 12.68 14.15 14.15 0 0 0 9.6 3.6h63.93q5.31 0 10-5h.51q4.8 5 9.94 5h63.42a14.67 14.67 0 0 0 11.14-5 15.67 15.67 0 0 0 4.45-11.31V1157.9h-14.62Zm-74.55-.51h-.52a59.6 59.6 0 0 0-12-22.29 43.7 43.7 0 0 0-15.25-11.14q5.84-8.91 13.37-12.68a30.7 30.7 0 0 1 14.23-3.26 31.4 31.4 0 0 1 14.74 3.6 39.85 39.85 0 0 1 12.85 12.34 46.5 46.5 0 0 0-15.08 10.63q-8.06 8.91-12.3 22.8Zm112.77 23.48h7.2l7.37-6V1157.9h-14.57zM1120.94 1181a8.07 8.07 0 0 0 5.91-2.49 8.25 8.25 0 0 0 2.49-6.08 8.4 8.4 0 0 0-16.8 0 8.25 8.25 0 0 0 2.49 6.08 8 8 0 0 0 5.91 2.49m20.74 0a8.5 8.5 0 0 0 8.57-8.57 8.07 8.07 0 0 0-2.49-5.91 8.26 8.26 0 0 0-6.08-2.49 8.5 8.5 0 0 0-8.4 8.4 8.25 8.25 0 0 0 2.49 6.08 8 8 0 0 0 5.91 2.49m30.51 117.45a8.3 8.3 0 0 0-6.09 2.48 8.1 8.1 0 0 0-2.48 5.92 8.49 8.49 0 0 0 8.57 8.57 8.07 8.07 0 0 0 5.91-2.49 8.28 8.28 0 0 0 2.49-6.08 8.49 8.49 0 0 0-8.4-8.4m16.28-36.51a6 6 0 0 1-1.71 4.46 6.23 6.23 0 0 1-4.8 2h-26.57a4.56 4.56 0 0 1-3.43-1.71 6.5 6.5 0 0 1-1.71-4.8v-64.79h-7.2l-7.37 5.83a44.9 44.9 0 0 0-18.34-4.11 36.28 36.28 0 0 0-26.91 11.14q-12.35 12.33-12.34 31 0 15.95 8.57 27.42 10.46 14.07 28.45 14.06a40.8 40.8 0 0 0 24-7.88 15 15 0 0 0 12.51 6h35.82a14.61 14.61 0 0 0 11.48-5.31 15.94 15.94 0 0 0 4.12-11v-62.56h-14.57Zm-52.79 3.26a44 44 0 0 1-19.37 5q-10.8 0-17.14-7.2-6.51-7.87-6.51-21.6a31 31 0 0 1 6.68-19.88 25.51 25.51 0 0 1 21.09-10.28 33.84 33.84 0 0 1 15.25 3.77Zm57.25 33.25a8.47 8.47 0 0 0-8.4 8.4 8.27 8.27 0 0 0 2.48 6.08 8.08 8.08 0 0 0 5.92 2.49 8 8 0 0 0 6-2.49 8.4 8.4 0 0 0 2.41-6.08 8.24 8.24 0 0 0-2.41-5.92 8 8 0 0 0-6-2.48m121.69 0a8.47 8.47 0 0 0-8.4 8.4 8.27 8.27 0 0 0 2.48 6.08 8.08 8.08 0 0 0 5.92 2.49 8 8 0 0 0 6-2.49 8.4 8.4 0 0 0 2.41-6.08 8.24 8.24 0 0 0-2.41-5.92 8 8 0 0 0-6-2.48m-4.46-36.51a6 6 0 0 1-1.72 4.46 6.2 6.2 0 0 1-4.79 2h-31.88v-66.67h-14.57v76.79q0 30.86-33.6 30.85a79 79 0 0 1-10.79-.69v5.49l5.65 7q4.45.18 7.37.18 18.86 0 30.68-8.75 14.74-10.62 15.26-32.05h37.36a14.61 14.61 0 0 0 11.48-5.31 15.94 15.94 0 0 0 4.12-11v-62.56h-14.57Zm-16.28 36.51a8.3 8.3 0 0 0-6.09 2.48 8.1 8.1 0 0 0-2.48 5.92 8.49 8.49 0 0 0 8.57 8.57 8.07 8.07 0 0 0 5.91-2.49 8.28 8.28 0 0 0 2.49-6.08 8.49 8.49 0 0 0-8.4-8.4m257.95-36.51a6.64 6.64 0 0 1-1.54 4.29 5.93 5.93 0 0 1-5 2.22H1522a5.22 5.22 0 0 1-4.11-2.39 7 7 0 0 1-1.2-4.12v-31q0-17.49-12.34-25.71-8.05-5.31-20.4-5.32-17.15.36-27.59 10.29-11.67 11.31-11.66 32a49.14 49.14 0 0 0 7 26.22h-37.19a23 23 0 0 0 .34-4.11v-26.22q0-16.29-10.46-26.91-11.65-11.49-30.67-11.49a81 81 0 0 0-13.2 1v11.49a39.6 39.6 0 0 1 8-.69q16.45.18 24.34 8.4 7.36 8.05 7.37 20.22v21.77q0 6.51-6.34 6.51h-50.73v12.17h56.22a15.13 15.13 0 0 0 8.91-2.91 19.5 19.5 0 0 0 3.08-3.08h.52l4.8 6h34.44l4.8-6h.35q11 11.13 25.88 11.14a29.24 29.24 0 0 0 23.48-11.14 14.79 14.79 0 0 0 12.34 6h32.74a14.65 14.65 0 0 0 11.14-5 15.68 15.68 0 0 0 4.46-11.31V1157.9h-14.57Zm-49.71 2.57q-9.09 9.09-19 9.09-10.12 0-16.8-8.92-7-9.26-7-23.13 0-13.2 6.69-21.34a21.69 21.69 0 0 1 17.65-8.15q7.88 0 12.85 4.63 5.65 5.32 5.66 14.23Zm87.93-106.61v127.01h7.2l7.37-6V1157.9zM43.27 1377.74a18.74 18.74 0 0 1 9.19 10.9q2.61 7.44 2.61 20.62 0 13.71-2.55 21.69a20.12 20.12 0 0 1-9.2 11.8q-6.65 3.82-19 3.82H0v-72.29h24.34q12.35 0 18.93 3.46m-8.67 53.31a13.06 13.06 0 0 0 4.36-7.92 81.7 81.7 0 0 0 1-14.72 58.2 58.2 0 0 0-1.06-12.87 10 10 0 0 0-4.36-6.43q-3.3-2.07-10.21-2.07h-9.66v46.78h9.67q6.92 0 10.26-2.77m33.23-56.77H82.5v72.29H67.83Zm30.4 0h28.07q25.52 0 25.51 23.81 0 14.15-10.63 20.84l10.31 27.64h-16.05l-8.4-24.23H112.9v24.23H98.23Zm28.28 35.51c3.33 0 5.88-1 7.65-3.14a12.64 12.64 0 0 0 2.66-8.45q0-5.31-2.76-8.34a10 10 0 0 0-7.76-3h-13.4v23Zm52.3-22.79v16.9h25.73v12.55h-25.73v17.33h32.11v12.75h-46.78v-72.29h46.78V1387Zm51.56 56.81a20.5 20.5 0 0 1-8.45-12q-2.28-7.92-2.28-21.1 0-14.46 2.49-22.54t8.35-11.64q5.85-3.55 16.37-3.56a92.5 92.5 0 0 1 21.58 2.87l-.42 11.69a120 120 0 0 0-17.12-1.59q-6.69 0-10.1 2.12a11.32 11.32 0 0 0-4.73 7 54 54 0 0 0-1.33 13.66v3.93a68.3 68.3 0 0 0 1.33 13.66 10.12 10.12 0 0 0 4.41 6.54q3.3 2 10.1 2a123 123 0 0 0 17.44-1.49l.32 12a100 100 0 0 1-20.31 2.45q-11.47.04-17.65-4m62.73-56.56h-19.35v-13h53.16v13h-19.14v59.32H293.1Zm43.05-12.97h14.67v72.29h-14.67Zm39.66 69.64a22.2 22.2 0 0 1-9.52-12.07q-2.93-8.13-2.92-21.1t2.92-21.32a23 23 0 0 1 9.52-12.33q6.58-4.1 17.54-4.09t17.54 4.09a23 23 0 0 1 9.51 12.33q2.93 8.23 2.93 21.32 0 12.75-2.82 20.83a22.47 22.47 0 0 1-9.41 12.18q-6.59 4.1-17.75 4.09-10.95 0-17.54-3.93m26.52-11.22q3.24-2.39 4.57-7.65a60.7 60.7 0 0 0 1.33-14.3 60 60 0 0 0-1.38-14.41 14.47 14.47 0 0 0-4.62-8q-3.25-2.61-8.88-2.61t-8.88 2.61a14.47 14.47 0 0 0-4.62 8 59.5 59.5 0 0 0-1.39 14.41 64.3 64.3 0 0 0 1.17 13.61 14.13 14.13 0 0 0 4.42 8q3.24 2.76 9.3 2.76 5.75-.03 8.98-2.42m91.48-58.42v72.29h-24.13L451.61 1387h-1.07v59.53h-14.67v-72.29h24.77l17.44 59.54h1.06v-59.54Zm48 69.64q-6.43-3.93-9.2-12.12t-2.76-21.69q0-13.29 2.87-21.42t9.2-11.91q6.32-3.78 17-3.77a112 112 0 0 1 21.37 2.23l3.83.74-.43 11.38a192 192 0 0 0-20.83-1.38q-8.4 0-12.23 2.81a11.85 11.85 0 0 0-4.73 7.66 85 85 0 0 0-.9 14.4 63.7 63.7 0 0 0 1.27 14.57q1.28 5.1 4.63 7.39t9.94 2.28a63 63 0 0 0 8.82-.42v-14H563v-12.75h21.05v37.52a168 168 0 0 1-24.67 2.45q-11.14-.04-17.57-3.97m70.75-56.92v16.9h25.73v12.55h-25.73v17.33h32.11v12.75h-46.78v-72.29h46.78V1387Zm-6.17-29.66 26.8-11.27 4.35 12.76-27.64 8.39Zm108.33 16.94v72.29h-24.13L672.52 1387h-1.06v59.53h-14.67v-72.29h24.76l17.45 59.58h1.06v-59.54Zm30.41 12.72v16.9h25.73v12.55h-25.73v17.33h32.1v12.75h-46.77v-72.29h46.77V1387Zm-6.13-29.62 26.79-11.27 4.36 12.76-27.64 8.39Zm50.35 16.9h28.07q25.51 0 25.51 23.81 0 14.15-10.63 20.84l10.31 27.64h-16.05l-8.4-24.23H804v24.23h-14.65Zm28.28 35.51c3.33 0 5.88-1 7.66-3.14a12.64 12.64 0 0 0 2.66-8.45c0-3.54-.93-6.32-2.77-8.34a10 10 0 0 0-7.76-3H804v23Zm73.57 23.71h-25.3l-2.9 13.07h-14.64l16.26-72.29h27.85l16.27 72.29h-14.67Zm-10.1-47.1H876l-7.34 34.34h19.78Zm78.46 47.2v13h-41.15v-72.29h14.68v59.32Zm23.7-46.6v16.9H1009v12.55h-25.74v17.33h32.11v12.75h-46.78v-72.29h46.78V1387Zm110.88-9.26a18.76 18.76 0 0 1 9.2 10.9q2.61 7.44 2.61 20.62 0 13.71-2.56 21.69a20.1 20.1 0 0 1-9.19 11.8q-6.66 3.82-19 3.82h-24.35v-72.29h24.35q12.35 0 18.94 3.46m-8.66 53.31a13.16 13.16 0 0 0 4.36-7.92 81.7 81.7 0 0 0 1-14.72 58 58 0 0 0-1.07-12.87 10.07 10.07 0 0 0-4.35-6.43q-3.3-2.07-10.21-2.07h-9.67v46.78h9.67q6.92 0 10.27-2.77m47.89-44.05v16.9h25.73v12.55h-25.73v17.33h32.11v12.75h-46.78v-72.29h46.78V1387Zm44.97 58.3-3.83-.75 1.49-11.37a178 178 0 0 0 21.8 1.91q11.27 0 11.26-9.35a6.13 6.13 0 0 0-3-5.64 44.4 44.4 0 0 0-10-3.82 55.8 55.8 0 0 1-13.23-5.21 18.5 18.5 0 0 1-7-6.81 20 20 0 0 1-2.18-9.78q0-10.62 6.49-16t18.18-5.42a80 80 0 0 1 9.46.58q4.89.59 14.35 2.29l-1.17 11.59a205 205 0 0 0-21.16-1.71q-11.58 0-11.58 7.66a5.55 5.55 0 0 0 1.91 4.36 15.7 15.7 0 0 0 4.78 2.81q2.88 1.13 9.68 3.25a50.6 50.6 0 0 1 11.37 4.89 15.26 15.26 0 0 1 5.85 6.32 22.7 22.7 0 0 1 1.81 9.73q0 11.16-6.75 17.12t-18.23 5.95a100.7 100.7 0 0 1-20.3-2.6m80.47-71.02h14.68v72.29h-14.68Zm105.89 0v72.29H1350v-55.92h-1.6l-14.14 52.73h-14.66l-14.15-52.73h-1.59v55.92h-14.67v-72.29h25l12.76 52.63 12.76-52.63Zm15.73 0H1407q25.73 0 25.73 25.09 0 12.77-6.54 19.46t-19.19 6.7h-11.9v21h-14.67Zm26.47 38.7q10.95 0 11-13.61 0-6.58-2.61-9.57t-8.35-3h-11.8v26.2Zm44.34 30.94a22.2 22.2 0 0 1-9.52-12.07q-2.92-8.13-2.92-21.1t2.92-21.32a23 23 0 0 1 9.52-12.33q6.59-4.1 17.54-4.09t17.54 4.09a23.06 23.06 0 0 1 9.52 12.33q2.91 8.23 2.92 21.32 0 12.75-2.82 20.83a22.47 22.47 0 0 1-9.41 12.18q-6.58 4.1-17.75 4.09-10.95 0-17.54-3.93m11.48-94.51h12.44l14.24 15.83h-15.09l-5.21-6-5.53 6h-15.1Zm15 83.29q3.24-2.39 4.57-7.65a60.7 60.7 0 0 0 1.33-14.3 60 60 0 0 0-1.38-14.41 14.48 14.48 0 0 0-4.63-8q-3.24-2.61-8.87-2.61t-8.88 2.61a14.47 14.47 0 0 0-4.62 8 59.6 59.6 0 0 0-1.38 14.41 63.6 63.6 0 0 0 1.17 13.61 14.06 14.06 0 0 0 4.41 8q3.24 2.76 9.3 2.76c3.86-.03 6.86-.83 9.02-2.42Zm45.7-45.45h-19.35v-13h53.16v13h-19.14v59.32h-14.67Zm43.8 58.05-3.83-.75 1.49-11.37a178 178 0 0 0 21.8 1.91q11.27 0 11.27-9.35a6.15 6.15 0 0 0-3-5.64 44.6 44.6 0 0 0-10-3.82 56 56 0 0 1-13.24-5.21 18.64 18.64 0 0 1-7-6.81 20 20 0 0 1-2.18-9.78q0-10.62 6.49-16t18.18-5.42a80 80 0 0 1 9.46.58q4.89.59 14.35 2.29l-1.17 11.59a205 205 0 0 0-21.15-1.71q-11.6 0-11.59 7.66a5.58 5.58 0 0 0 1.91 4.36 15.7 15.7 0 0 0 4.79 2.81q2.87 1.13 9.67 3.25a51 51 0 0 1 11.38 4.89 15.3 15.3 0 0 1 5.84 6.32 22.5 22.5 0 0 1 1.81 9.73q0 11.16-6.75 17.12t-18.23 5.95a100.7 100.7 0 0 1-20.3-2.6" class="cls-1"/>
</g>
</g>
</svg>
