<svg xmlns="http://www.w3.org/2000/svg" xml:space="preserve" width="841.89" height="595.28" viewBox="0 0 841.89 595.28">
<path fill="#2598b1" d="M420.945 563.704 240.24 342.999l180.705-180.705L601.65 342.999z"/>
<path fill="#fff" d="M420.945 489.418 314.526 342.999 420.945 236.58l106.419 106.419z"/>
<path fill="#1f4998" d="m420.945 463.964-80.964-120.965 80.964-80.963 80.964 80.963z"/>
<path fill="#fff" d="M137.265 342.999h567.361v146.419H137.265z"/>
<g fill="#1f4998">
<path d="M312.067 354.935H117.063a2.497 2.497 0 0 1 0-4.995h195.005a2.498 2.498 0 1 1-.001 4.995m412.76 0H529.822a2.497 2.497 0 0 1 0-4.995h195.005a2.498 2.498 0 1 1 0 4.995m-412.76 134.483H44.525a2.498 2.498 0 0 1 0-4.995h267.542a2.498 2.498 0 1 1 0 4.995m485.297 0H529.822a2.498 2.498 0 0 1 0-4.995h267.542a2.498 2.498 0 1 1 0 4.995M136.033 364.205a2.41 2.41 0 0 0 2.437-2.437c0-1.302-1.093-2.353-2.437-2.353-1.302 0-2.394 1.051-2.394 2.353 0 1.387 1.092 2.437 2.394 2.437m-5.671 0c1.386 0 2.479-1.05 2.479-2.437 0-1.302-1.093-2.353-2.479-2.353a2.35 2.35 0 0 0-2.352 2.353c0 1.387 1.051 2.437 2.352 2.437m51.699 23.524c-1.344 0-2.437 1.092-2.437 2.395a2.413 2.413 0 0 0 2.437 2.437c1.302 0 2.395-1.051 2.395-2.437 0-1.303-1.094-2.395-2.395-2.395m5.418 0c-1.302 0-2.395 1.092-2.395 2.395 0 1.386 1.093 2.437 2.395 2.437s2.479-1.051 2.479-2.437c0-1.303-1.177-2.395-2.479-2.395m38.554-27.892h-1.554v18.021c0 1.891-.715 2.982-2.689 3.15h-29.059c-3.151 0-4.243-1.302-4.412-4.242v-2.563q0-3.277-3.276-3.276h-1.512v6.931c0 1.933-.756 2.982-2.731 3.15h-39.137l.042-3.612c.042-4.873-2.353-10.04-8.276-10.04-5.503 0-8.444 4.159-8.444 9.242 0 7.52 6.806 8.527 11.931 8.653 2.562-.126 9.956 0 9.703-.042h34.559c2.311-.084 4.033-.798 5.251-1.975 1.381 1.224 3.286 1.883 5.669 1.959v.016h30.07c4.831-.168 7.183-3.192 7.183-7.142v-14.955c0-2.183-1.134-3.275-3.318-3.275m-88.529 21.171c-2.773-.084-8.36.589-8.36-4.956 0-3.025 1.302-5.167 3.907-5.167 4.033 0 4.495 3.57 4.495 7.099 0 1.05-.042 2.1-.042 3.024m176.767-21.171h-1.555v18.021c0 1.891-.714 2.982-2.688 3.15H285.59c-3.528 0-4.873-1.218-4.873-4.41 0-5.083-2.982-9.2-8.443-9.2-5.041 0-8.107 4.075-8.107 8.528-.084 3.738-1.093 5.082-4.957 5.082h-18.561c-1.68-.168-2.478-.966-2.646-2.394v-16.342c0-1.47-1.428-2.436-2.688-2.436h-2.185v18.23c0 3.949 2.352 6.974 7.184 7.142h20.367v-.028c2.509-.137 4.473-.925 5.88-2.408 1.47 1.513 3.571 2.437 6.091 2.437 2.394 0 4.327-.924 5.713-2.353 1.513 1.597 3.697 2.353 6.553 2.353h25.488c4.83-.168 7.183-3.192 7.183-7.142v-14.954c-.001-2.184-1.134-3.276-3.318-3.276m-41.998 21.844c-2.646 0-3.949-2.101-3.949-5.083 0-3.571 1.345-5.671 4.327-5.671 2.562 0 3.865 2.1 3.865 5.125.001 3.528-1.261 5.629-4.243 5.629m52.076-21.802h-2.142v22.096c0 2.227 1.428 3.234 2.898 3.234h1.932v-22.937c0-1.385-1.47-2.393-2.688-2.393m28.645 7.981v.042a8 8 0 0 0-3.067-.589c-5.503 0-8.443 4.159-8.443 9.242 0 7.52 6.805 8.569 11.93 8.653-1.05 1.933-3.613 3.653-9.284 3.78v1.555c0 1.134 1.134 2.017 2.941 2.017 8.611 0 11.006-5.587 11.048-8.611l.084-6.596c0-1.134-.168-2.269-.378-3.318-.462-2.604-2.143-5.125-4.831-6.175m-1.555 13.19c-2.73 0-5.797-.504-5.797-5.04 0-2.983 1.303-5.167 3.907-5.167 4.914 0 4.285 6.049 4.453 10.165-.714 0-1.638.042-2.563.042m28.644-12.266c-.673-.168-1.261-.252-1.807-.252-1.806 0-2.898.84-3.822 2.311l-.841 1.344a12.3 12.3 0 0 1 2.059-.168c1.471 0 2.814.378 4.201 1.261.126.084 3.738 2.394 3.738 7.729h-11.593v1.681c0 1.261.755 2.521 2.31 2.521h13.652v-4.201c0-5.377-2.814-8.695-3.445-9.493-1.722-2.061-4.368-2.733-4.452-2.733m165.595-.84c1.345 0 2.437-1.051 2.437-2.396a2.41 2.41 0 0 0-2.437-2.436c-1.302 0-2.396 1.05-2.396 2.436a2.395 2.395 0 0 0 2.396 2.396m-5.461 0a2.394 2.394 0 0 0 2.395-2.396c0-1.386-1.092-2.436-2.395-2.436a2.413 2.413 0 0 0-2.438 2.436c0 1.346 1.094 2.396 2.438 2.396m57.119-3.781c1.261 0 2.395-1.05 2.395-2.395s-1.134-2.395-2.395-2.395c-1.386 0-2.438 1.051-2.438 2.395s1.052 2.395 2.438 2.395m-5.671 0a2.367 2.367 0 0 0 2.395-2.395 2.37 2.37 0 0 0-2.395-2.395c-1.344 0-2.438 1.051-2.438 2.395.001 1.345 1.094 2.395 2.438 2.395"/>
<path d="M594.438 367.313c-5.503 0-8.443 4.159-8.443 9.242 0 1.848.378 3.318 1.093 4.452h-37.249c-3.15-.084-4.243-1.302-4.411-4.242v-2.563q0-3.277-3.276-3.276h-1.513v6.931c0 1.933-.756 2.982-2.73 3.15H494.91v-1.218c0-5.251-2.52-12.393-9.409-12.393-4.453 0-8.149 3.487-10.712 7.771v-.714c0-3.108-.924-3.108-3.234-3.108h-.967v9.661h-71.732c-1.679-.168-2.477-.966-2.646-2.394V362.27c0-1.47-1.428-2.436-2.689-2.436h-2.183v18.23c0 3.949 2.351 6.974 7.182 7.142h139.764c2.31-.084 4.032-.798 5.25-1.975 1.381 1.224 3.286 1.883 5.669 1.959v.016h53.508v-7.855c0-2.227-.42-4.579-1.639-6.469-1.426-2.434-3.988-3.569-6.634-3.569m-103.731 13.695h-15.291c.757-3.108 4.158-8.737 9.074-8.905 5.503.252 6.259 3.949 6.259 7.436 0 .503 0 1.007-.042 1.469m107.764 0c-3.108-.126-8.317.715-8.317-4.998 0-3.025 1.302-5.167 3.906-5.167 3.991 0 4.453 3.486 4.453 7.015 0 1.092-.042 2.184-.042 3.15m25.62-21.297h-1.512v18.104c0 1.934-.716 3.025-2.688 3.193h-4.579v-18.861c0-1.386-1.512-2.394-2.688-2.394h-2.185v21.255h-4.789v1.219c0 1.933 1.093 2.982 3.571 2.982h11.048c4.789-.168 7.142-3.234 7.142-7.143v-15.079c-.001-2.142-1.136-3.276-3.32-3.276m10.917.168h-2.143v22.096c0 2.227 1.428 3.234 2.898 3.234h1.932v-22.937c0-1.385-1.469-2.393-2.687-2.393m24.065 4.326c1.303 0 2.395-1.008 2.395-2.311 0-1.344-1.092-2.311-2.395-2.311-1.344 0-2.354.967-2.354 2.311.001 1.303 1.01 2.311 2.354 2.311m2.773 3.15c-5.503 0-8.443 4.117-8.443 9.2 0 4.578 2.94 8.653 8.065 8.653 5.503 0 8.485-4.075 8.485-9.199 0-4.536-2.982-8.654-8.107-8.654m0 14.326c-2.982 0-4.284-2.101-4.284-5.671 0-2.983 1.302-5.125 3.906-5.125 2.94 0 4.285 2.142 4.285 5.671 0 3.024-1.261 5.125-3.907 5.125m2.562-17.476c1.219 0 2.311-1.008 2.311-2.311a2.304 2.304 0 0 0-2.311-2.311c-1.344 0-2.354.967-2.354 2.311.001 1.303 1.01 2.311 2.354 2.311m10.667 6.638h-1.807v10.165c0 4.537.336 7.394-2.982 7.394-.126 0-.924-.042-1.68-.168v1.765c0 1.638 1.386 2.563 3.444 2.563 3.528 0 6.091-2.73 6.091-5.713v-12.645c.001-2.395-.713-3.361-3.066-3.361m12.516-8.571c0-1.386-1.471-2.394-2.688-2.394h-2.143v22.096c0 2.227 1.428 3.235 2.898 3.235h1.933zm5.963 5.966c1.26 0 2.395-1.093 2.395-2.437a2.393 2.393 0 0 0-2.395-2.395 2.37 2.37 0 0 0-2.396 2.395c0 1.345 1.094 2.437 2.396 2.437m-.21 2.605h-1.807v10.165c0 4.537.336 7.394-2.982 7.394-.126 0-.924-.042-1.68-.168v1.765c0 1.638 1.386 2.563 3.444 2.563 3.528 0 6.091-2.73 6.091-5.713v-12.645c0-2.395-.714-3.361-3.066-3.361m23.186 3.192c-.462-2.604-2.143-5.125-4.831-6.175v.042a8 8 0 0 0-3.066-.589c-5.503 0-8.443 4.159-8.443 9.242 0 7.52 6.805 8.569 11.93 8.653-1.05 1.933-3.612 3.653-9.283 3.78v1.555c0 1.134 1.134 2.017 2.94 2.017 8.611 0 11.006-5.587 11.048-8.611l.084-6.596c-.001-1.133-.169-2.268-.379-3.318m-6.385 7.015c-2.73 0-5.797-.504-5.797-5.04 0-2.983 1.303-5.167 3.907-5.167 4.913 0 4.284 6.049 4.452 10.165-.714 0-1.638.042-2.562.042m-593.878 91.437c-1.84 0-3.12-1.04-3.12-3.199 0-3.08-.52-11.918-.92-14.279-.319.762-.759 1.761-1.119 2.841l-3.36 10.358c-.56 1.72-1.319 3.319-2 4.279h-1.279c-1.6 0-2.999-1.24-3.879-3.839l-3.44-10.159c-.44-1.239-1-2.679-1.36-3.519-.64 3.439-1.04 13.117-1.04 17.517h-1.679c-1.8 0-3.04-1.16-3.04-3.199 0-5.399 1.04-16.117 1.92-20.917h1.04c3.359 0 5.679 1.52 6.599 4.079l3.359 9.438c.72 2.04 1.16 3.479 1.36 4.6.2-.92.4-1.68.68-2.48l2.799-8.558c1.24-3.8 2.72-6.279 3.76-7.079h.56c2.719 0 4.399 1.679 4.799 4.999.44 3.8 1.16 14.278 1.16 19.117zm9.362-19.436c-1.439 0-2.599-1.2-2.599-2.64s1.16-2.6 2.599-2.6 2.68 1.16 2.68 2.6-1.239 2.64-2.68 2.64m3.201 19.596c-3.479 0-5.399-1.96-5.399-5.64V454.73h1.28c1.999 0 3.199 1.08 3.199 3.359v8.479c0 1.84.8 2.399 2.76 2.399h.84v.96c0 1.961-.761 2.72-2.68 2.72m20.398-.16c-2 0-3.279-1.28-3.279-2.96v-7.198c0-3.04-1.36-4.399-3.679-4.399-1.92 0-3.28 1.479-3.28 4.078v10.479h-1.32c-1.92 0-3.159-1.28-3.159-2.96v-7.838c0-3.8 2.519-7.759 8.158-7.759 4.24 0 7.799 2.879 7.799 7.998v10.559zm9.241-19.436c-1.439 0-2.599-1.2-2.599-2.64s1.16-2.6 2.599-2.6 2.68 1.16 2.68 2.6-1.24 2.64-2.68 2.64m3.2 19.596c-3.479 0-5.399-1.96-5.399-5.64V454.73h1.279c2 0 3.2 1.08 3.2 3.359v8.479c0 1.84.8 2.399 2.76 2.399h.84v.96c0 1.961-.761 2.72-2.68 2.72m10.999.241c-3.359 0-5.839-1.72-5.839-3.56v-2.04h.16c1 .88 3.32 1.72 5.439 1.72 2.24 0 3.32-.64 3.32-2 0-1.039-.64-1.52-3.76-1.959-3.839-.521-5.679-2.08-5.679-4.84 0-3.359 3.04-6.278 7.679-6.278 4.119 0 5.799 2.119 5.799 3.879v1.72h-.2c-.92-.96-3-1.68-5.159-1.68-2.76 0-3.639.84-3.639 2 0 .96.56 1.319 3.639 1.8 3.76.64 5.799 2.279 5.799 5.119.001 3.838-2.72 6.119-7.559 6.119m15.32-22.637h1.08v4.079h6.279v1.88c0 .92-.84 2.12-2.719 2.12h-3.56v7.118c0 2.32 1.04 3.24 2.839 3.24 1.44 0 2.56-.2 3.24-.641h.2v1.6c0 1.88-1.36 3.041-3.999 3.041-4.56 0-6.759-2.48-6.759-6.72V455.09c0-2.4 1.681-4.839 3.399-4.839m17.159 15.117h-2.959c.36 2.28 2.44 3.719 5.079 3.719 1.88 0 4.119-.359 5.559-1.719h.16v1.439c0 2.319-1.56 4.08-6.559 4.08-4.479 0-8.878-3.56-8.878-9.119 0-6.039 3.679-9.838 8.838-9.838 3.76 0 7.279 2.72 7.279 7.038.001 3.321-2.52 4.4-8.519 4.4m.84-7.679c-2.159 0-3.679 1.8-3.799 3.88v.599h2c4.279 0 5.238-.479 5.238-1.759 0-1.8-1.359-2.72-3.439-2.72m22.08 1.04c-.68-.24-1.44-.52-2.64-.52-1.999 0-3.119 1.119-3.119 3.879v10.398h-1.24c-2 0-3.279-1-3.279-2.88v-8.358c0-3.6 1.88-7.079 6.678-7.079 2.76 0 3.76 1.601 3.76 2.96v1.6zm9.241 6.639h-2.959c.36 2.28 2.44 3.719 5.079 3.719 1.88 0 4.119-.359 5.559-1.719h.16v1.439c0 2.319-1.56 4.08-6.559 4.08-4.479 0-8.878-3.56-8.878-9.119 0-6.039 3.679-9.838 8.838-9.838 3.76 0 7.279 2.72 7.279 7.038 0 3.321-2.52 4.4-8.519 4.4m.839-7.679c-2.159 0-3.679 1.8-3.799 3.88v.599h2c4.279 0 5.238-.479 5.238-1.759 0-1.8-1.358-2.72-3.439-2.72m28.959 15.199c-4.759 0-8.399-4.16-8.399-9.119 0-5.959 2.88-9.838 8.159-9.838 1.8 0 3.799 1.279 4.479 2.879v-9.718h1.4c2.119 0 3.079 1.239 3.079 3.079v13.958c.001 5.279-2.478 8.759-8.718 8.759m-.199-15.159c-2.32 0-3.799 2.24-3.799 5.159 0 3.76 1.959 6.199 4.559 6.199 2.519 0 3.639-1.88 3.639-5.159 0-4.559-2-6.199-4.399-6.199m20.719 7.639h-2.959c.36 2.28 2.44 3.719 5.079 3.719 1.88 0 4.119-.359 5.559-1.719h.16v1.439c0 2.319-1.56 4.08-6.559 4.08-4.479 0-8.878-3.56-8.878-9.119 0-6.039 3.679-9.838 8.838-9.838 3.76 0 7.279 2.72 7.279 7.038.001 3.321-2.52 4.4-8.519 4.4m.84-7.679c-2.159 0-3.679 1.8-3.799 3.88v.599h2c4.279 0 5.238-.479 5.238-1.759 0-1.8-1.359-2.72-3.439-2.72m27.48 14.958c-3.719 0-5.719-1.96-5.719-5.64V448.29h1.28c2.239 0 3.199 1.32 3.199 3.04v15.237c0 1.84.96 2.399 3.08 2.399h1.2v.96c0 1.962-1.04 2.721-3.04 2.721m5.68-15.477h-.959v-.2c.959-.88 1.639-2.6 1.639-3.64 0-1.72-1.52-1.799-1.52-3.599 0-1.44 1.16-2.6 2.76-2.6 1.8 0 2.999 1.399 2.999 3.999 0 3.08-2.199 6.04-4.919 6.04m25.957 12.518c0 1.92-1.08 2.96-5.279 2.96h-2.56c-5.879 0-8.959-3.239-8.959-9.398v-4.439c0-2.319.16-4.879.44-6.799.4-2.88 1.72-3.64 3.719-3.64h12.599v1.64c0 1.68-1.04 2.52-3.24 2.52h-8.279c-.24 1.76-.36 4.12-.36 5.64h9.279v1.72c0 1.6-.96 2.199-2.92 2.199h-6.359v1.44c0 4.159 1.36 4.999 5.119 4.999h1.521c1.759 0 3.559-.16 5.279-.561zm16.561-9.479c-.6-1.039-2.319-1.879-4.879-1.879-2.64 0-4.959 2.079-4.959 4.799 0 3.279 1.959 5.52 4.999 5.52 2.6 0 4.159-.841 4.799-1.681h.16v2.08c0 2.199-2.12 3.76-5.399 3.76-4.959 0-9.239-3.84-9.239-9.039 0-5.159 3.56-9.599 9.759-9.599 2.879 0 4.959 1.76 4.959 3.92v2.119zm11.401-6.278c5.439 0 8.559 4.399 8.559 9.198 0 5.439-3.12 9.759-8.959 9.759-5.439 0-8.559-4.319-8.559-9.119 0-5.439 3.12-9.838 8.959-9.838m-.4 4.039c-2.6 0-3.919 2.159-3.919 5.159 0 3.6 1.319 5.719 4.319 5.719 2.6 0 3.879-2.119 3.879-5.079 0-3.64-1.319-5.799-4.279-5.799m27.879 14.517c-2 0-3.279-1.28-3.279-2.96v-7.198c0-3.04-1.361-4.399-3.68-4.399-1.92 0-3.279 1.479-3.279 4.078v10.479h-1.321c-1.919 0-3.159-1.28-3.159-2.96v-7.838c0-3.8 2.52-7.759 8.158-7.759 4.24 0 7.799 2.879 7.799 7.998v10.559zm14.4-18.556c5.438 0 8.558 4.399 8.558 9.198 0 5.439-3.119 9.759-8.958 9.759-5.439 0-8.559-4.319-8.559-9.119 0-5.439 3.12-9.838 8.959-9.838m-.4 4.039c-2.6 0-3.919 2.159-3.919 5.159 0 3.6 1.319 5.719 4.319 5.719 2.6 0 3.879-2.119 3.879-5.079 0-3.64-1.319-5.799-4.279-5.799m38.396 14.517c-2.439 0-3.399-1.16-3.399-3.279v-6.999c0-2.999-1.359-4.279-3.319-4.279-1.84 0-3.079 1.28-3.079 3.76v10.798h-1.2c-1.999 0-3.279-1.16-3.279-3.279v-6.999c0-2.999-1.399-4.279-3.359-4.279-1.76 0-3.079 1.399-3.079 3.88v10.678h-1.2c-1.84 0-3.279-1.2-3.279-3.279v-7.039c0-4.919 2.6-8.238 8.078-8.238 2.36 0 4.2 1.078 5.52 2.839 1.04-1.68 2.999-2.839 5.199-2.839 4.159 0 7.519 2.52 7.519 7.679v10.878h-1.123zm9.124-19.436c-1.44 0-2.6-1.2-2.6-2.64s1.159-2.6 2.6-2.6c1.439 0 2.68 1.16 2.68 2.6s-1.241 2.64-2.68 2.64m3.199 19.596c-3.479 0-5.399-1.96-5.399-5.64V454.73h1.28c1.999 0 3.199 1.08 3.199 3.359v8.479c0 1.84.8 2.399 2.76 2.399h.84v.96c0 1.961-.76 2.72-2.68 2.72m12.279-7.279h-2.959c.359 2.28 2.439 3.719 5.079 3.719 1.88 0 4.119-.359 5.559-1.719h.16v1.439c0 2.319-1.56 4.08-6.559 4.08-4.479 0-8.879-3.56-8.879-9.119 0-6.039 3.68-9.838 8.839-9.838 3.759 0 7.278 2.72 7.278 7.038.001 3.321-2.519 4.4-8.518 4.4m.84-7.679c-2.159 0-3.679 1.8-3.799 3.88v.599h1.999c4.278 0 5.239-.479 5.239-1.759.001-1.8-1.359-2.72-3.439-2.72m28.159 7.679h-2.959c.359 2.28 2.439 3.719 5.079 3.719 1.88 0 4.118-.359 5.559-1.719h.16v1.439c0 2.319-1.56 4.08-6.56 4.08-4.479 0-8.878-3.56-8.878-9.119 0-6.039 3.68-9.838 8.839-9.838 3.759 0 7.278 2.72 7.278 7.038.001 3.321-2.518 4.4-8.518 4.4m.84-7.679c-2.159 0-3.679 1.8-3.799 3.88v.599h1.999c4.278 0 5.239-.479 5.239-1.759.001-1.8-1.359-2.72-3.439-2.72m15.401-7.438h1.079v4.079h6.279v1.88c0 .92-.84 2.12-2.72 2.12h-3.56v7.118c0 2.32 1.04 3.24 2.84 3.24 1.439 0 2.56-.2 3.239-.641h.2v1.6c0 1.88-1.359 3.041-3.999 3.041-4.56 0-6.759-2.48-6.759-6.72V455.09c.001-2.4 1.681-4.839 3.401-4.839m27.717 22.637c-4.759 0-8.398-4.16-8.398-9.119 0-5.959 2.88-9.838 8.159-9.838 1.799 0 3.799 1.279 4.479 2.879v-9.718h1.4c2.119 0 3.079 1.239 3.079 3.079v13.958c0 5.279-2.479 8.759-8.719 8.759m-.199-15.159c-2.32 0-3.8 2.24-3.8 5.159 0 3.76 1.96 6.199 4.56 6.199 2.52 0 3.638-1.88 3.638-5.159 0-4.559-1.998-6.199-4.398-6.199m20.72 7.639h-2.959c.359 2.28 2.439 3.719 5.079 3.719 1.88 0 4.118-.359 5.559-1.719h.16v1.439c0 2.319-1.561 4.08-6.56 4.08-4.479 0-8.878-3.56-8.878-9.119 0-6.039 3.68-9.838 8.839-9.838 3.759 0 7.278 2.72 7.278 7.038.001 3.321-2.519 4.4-8.518 4.4m.84-7.679c-2.159 0-3.679 1.8-3.799 3.88v.599h1.999c4.278 0 5.238-.479 5.238-1.759 0-1.8-1.358-2.72-3.438-2.72m17.12 15.199c-3.359 0-5.839-1.72-5.839-3.56v-2.04h.159c1 .88 3.319 1.72 5.439 1.72 2.239 0 3.319-.64 3.319-2 0-1.039-.64-1.52-3.759-1.959-3.84-.521-5.68-2.08-5.68-4.84 0-3.359 3.04-6.278 7.679-6.278 4.119 0 5.799 2.119 5.799 3.879v1.72h-.199c-.92-.96-3-1.68-5.159-1.68-2.76 0-3.64.84-3.64 2 0 .96.56 1.319 3.64 1.8 3.759.64 5.799 2.279 5.799 5.119.001 3.838-2.719 6.119-7.558 6.119m33.559-20.477h-7.438v5.959h8.718v1.439a2.334 2.334 0 0 1-2.319 2.399h-6.199v10.278h-1.999c-1.76 0-2.84-.92-2.84-2.8v-17.597c0-2.96 1.2-3.72 4.039-3.72h10.799v1.519c-.002 1.123-.842 2.523-2.761 2.523m8.361.64c-1.44 0-2.6-1.2-2.6-2.64s1.159-2.6 2.6-2.6c1.439 0 2.679 1.16 2.679 2.6s-1.24 2.64-2.679 2.64m3.199 19.596c-3.479 0-5.399-1.96-5.399-5.64V454.73h1.28c1.999 0 3.199 1.08 3.199 3.359v8.479c0 1.84.8 2.399 2.76 2.399h.84v.96c0 1.961-.76 2.72-2.68 2.72m20.399-.16c-2 0-3.279-1.28-3.279-2.96v-7.198c0-3.04-1.36-4.399-3.68-4.399-1.92 0-3.279 1.479-3.279 4.078v10.479h-1.321c-1.92 0-3.158-1.28-3.158-2.96v-7.838c0-3.8 2.52-7.759 8.157-7.759 4.24 0 7.8 2.879 7.8 7.998v10.559zm13.68.321h-.92c-4.319 0-7.279-2.44-7.279-5.76 0-3.239 2.359-5.679 9.038-5.679h1.561v-.24c0-2.56-1.2-3.319-3.88-3.319-3.279 0-5.079 1.24-5.759 2.08h-.16v-1.44c0-2.039 1.8-4.438 6.559-4.438 4.04 0 7.679 1.879 7.679 8.118v4.159c-.001 3.839-2.839 6.519-6.839 6.519m2.44-8.2h-1.601c-3.438 0-4.398.8-4.398 2.28 0 1.399 1.119 2.239 3.119 2.239 1.92 0 2.88-.96 2.88-2.8zm23.359 7.879c-2 0-3.279-1.28-3.279-2.96v-7.198c0-3.04-1.36-4.399-3.68-4.399-1.92 0-3.279 1.479-3.279 4.078v10.479h-1.32c-1.92 0-3.159-1.28-3.159-2.96v-7.838c0-3.8 2.52-7.759 8.157-7.759 4.24 0 7.8 2.879 7.8 7.998v10.559zm19.959-12.278c-.6-1.039-2.319-1.879-4.879-1.879-2.641 0-4.959 2.079-4.959 4.799 0 3.279 1.959 5.52 4.999 5.52 2.6 0 4.159-.841 4.799-1.681h.16v2.08c0 2.199-2.12 3.76-5.399 3.76-4.959 0-9.238-3.84-9.238-9.039 0-5.159 3.56-9.599 9.759-9.599 2.879 0 4.959 1.76 4.959 3.92v2.119zm10.36 5.159h-2.959c.359 2.28 2.439 3.719 5.079 3.719 1.88 0 4.119-.359 5.559-1.719h.16v1.439c0 2.319-1.561 4.08-6.559 4.08-4.479 0-8.879-3.56-8.879-9.119 0-6.039 3.68-9.838 8.839-9.838 3.759 0 7.278 2.72 7.278 7.038.001 3.321-2.519 4.4-8.518 4.4m.84-7.679c-2.159 0-3.679 1.8-3.799 3.88v.599h1.999c4.278 0 5.238-.479 5.238-1.759.001-1.8-1.358-2.72-3.438-2.72m17.121 15.199c-3.359 0-5.839-1.72-5.839-3.56v-2.04h.159c1 .88 3.319 1.72 5.439 1.72 2.239 0 3.319-.64 3.319-2 0-1.039-.641-1.52-3.759-1.959-3.841-.521-5.68-2.08-5.68-4.84 0-3.359 3.04-6.278 7.679-6.278 4.119 0 5.799 2.119 5.799 3.879v1.72h-.199c-.92-.96-3-1.68-5.159-1.68-2.76 0-3.64.84-3.64 2 0 .96.56 1.319 3.64 1.8 3.759.64 5.799 2.279 5.799 5.119.001 3.838-2.719 6.119-7.558 6.119m-542.345-26.182c.931.479 2.744 1.933 3.566 2.69 1.228 1.13 1.542 1.63 1.1 2.689l-3.8-2.247c-.244-.145-.492-.292-.686-.5-.634-.678-.572-1.875-.18-2.632m65.199-366.351c1.386 0 2.479-1.05 2.479-2.436 0-1.302-1.093-2.353-2.479-2.353a2.35 2.35 0 0 0-2.353 2.353c0 1.386 1.051 2.436 2.353 2.436m5.671 0a2.41 2.41 0 0 0 2.437-2.436c0-1.302-1.093-2.353-2.437-2.353-1.302 0-2.394 1.051-2.394 2.353 0 1.386 1.091 2.436 2.394 2.436m15.244 21.005h10.582c2.311-.084 4.033-.799 5.251-1.974 1.38 1.222 3.286 1.882 5.669 1.958v.016h17.723c4.789-.168 7.1-3.235 7.1-7.141v-3.865c0-2.185-1.093-3.319-3.235-3.319h-1.554v6.931c0 1.933-.756 2.983-2.689 3.193H310.64c-3.151 0-4.242-1.302-4.411-4.243v-2.562q0-3.277-3.276-3.277h-1.513v6.932c0 1.932-.756 2.982-2.73 3.15h-19.819l.042-3.613c.042-4.872-2.353-10.039-8.276-10.039-5.503 0-8.444 4.158-8.444 9.241 0 7.519 6.806 8.528 11.931 8.654 2.562-.126 9.956 0 9.703-.042zm-13.774-4.201c-2.772-.084-8.36.588-8.36-4.957 0-3.024 1.302-5.167 3.907-5.167 4.033 0 4.495 3.571 4.495 7.1 0 1.049-.042 2.1-.042 3.024m33.136 9.115c0-1.302-1.176-2.395-2.479-2.395-1.302 0-2.394 1.093-2.394 2.395 0 1.386 1.092 2.436 2.394 2.436s2.479-1.05 2.479-2.436m-10.334 0a2.41 2.41 0 0 0 2.437 2.436c1.302 0 2.394-1.05 2.394-2.436 0-1.302-1.092-2.395-2.394-2.395-1.345 0-2.437 1.094-2.437 2.395m30.576-.21c0 1.386 1.05 2.436 2.352 2.436 1.26 0 2.479-1.05 2.437-2.436 0-1.345-1.135-2.395-2.437-2.395-1.344 0-2.352 1.093-2.352 2.395m40.488-25.709c1.344 0 2.395-1.092 2.395-2.436s-1.051-2.353-2.395-2.353c-1.386 0-2.395 1.009-2.395 2.353s1.009 2.436 2.395 2.436m35.823 21.004h1.512c4.83-.168 7.183-3.193 7.183-7.141V79.264c0-2.184-1.134-3.277-3.318-3.277h-1.555v18.022c0 1.89-.714 2.982-2.688 3.15h-.29c-3.528 0-4.873-1.218-4.873-4.411 0-5.083-2.982-9.199-8.443-9.199-5.041 0-8.107 4.074-8.107 8.527-.084 3.739-1.093 5.083-4.957 5.083h-.752c-.672 0-.672.042-3.444.042-.883 0-1.891-.126-2.857-.714 2.941-2.436 5.503-6.469 6.385-8.612-1.932-1.05-4.83-4.2-9.704-4.2-1.848 0-4.746 1.092-4.873 1.386-1.848 1.008-3.99 2.311-5.082 2.772 0 1.135-.211 2.899-.211 3.571 1.891.462 4.664 2.352 6.638 5.083-.588.546-1.723.672-2.983.672h-17.931c-.42 0-.714-.042-.966-.084v-6.721c0-2.395-.757-3.361-3.109-3.361h-1.806v10.166c0 4.537.462 7.393-2.941 7.393-.168 0-.966-.042-1.722-.168v1.765c0 1.638 1.386 2.562 3.444 2.562 3.529 0 5.881-2.731 5.881-5.713v-1.638h17.974c3.319 0 6.385-1.47 7.31-2.269 3.36 2.479 7.939 2.269 9.829 2.269h1.975v-.014c2.709-.069 4.812-.859 6.296-2.423 1.47 1.512 3.57 2.437 6.091 2.437 2.394 0 4.327-.925 5.713-2.353 1.481 1.563 3.61 2.316 6.381 2.347zm-35.656-7.182c-2.058-1.177-3.78-3.487-6.006-4.579.797-.378 2.94-2.226 6.216-2.226 1.387 0 2.983.335 4.789 1.26-1.68 2.351-3.108 3.991-4.999 5.545m23.184 3.654c-2.646 0-3.949-2.1-3.949-5.083 0-3.57 1.345-5.671 4.327-5.671 2.562 0 3.865 2.101 3.865 5.125 0 3.528-1.261 5.629-4.243 5.629m27.928-21.802h-2.142v22.096c0 2.226 1.428 3.235 2.898 3.235h1.933V78.424c-.001-1.387-1.471-2.395-2.689-2.395m22.512 4.326c1.386 0 2.479-1.05 2.479-2.436 0-1.302-1.093-2.353-2.479-2.353a2.35 2.35 0 0 0-2.353 2.353c0 1.386 1.05 2.436 2.353 2.436m5.671 0a2.41 2.41 0 0 0 2.437-2.436c0-1.302-1.093-2.353-2.437-2.353-1.303 0-2.395 1.051-2.395 2.353 0 1.386 1.092 2.436 2.395 2.436m129.438 13.864V79.264c0-2.184-1.134-3.277-3.318-3.277h-1.555v18.022c0 1.89-.714 2.982-2.689 3.15h-.287c-3.529 0-4.873-1.218-4.873-4.411 0-5.083-2.982-9.199-8.443-9.199-5.041 0-8.107 4.074-8.107 8.527-.078 3.471-.957 4.876-4.175 5.06-3.151-.116-4.39-1.353-4.39-4.388 0-5.083-2.982-9.199-8.443-9.199-5.041 0-8.107 4.074-8.107 8.527-.079 3.529-.985 4.923-4.334 5.069-2.988-.142-3.406-1.356-3.604-4.229V79.222c0-2.142-1.093-3.277-3.277-3.277h-1.512v18.021c0 1.933-.756 2.983-2.73 3.193h-8.564c0-10.208-7.561-12.224-7.897-12.224-.547-.126-1.05-.252-1.512-.252 3.822-2.899 7.646-5.713 11.467-8.612.505-.378.715-1.008.715-1.596 0-.546-.168-1.092-.42-1.428l-1.134-1.47a5050 5050 0 0 0-15.879 11.888c-.84.63-1.177 1.47-1.177 2.142 0 1.092.883 1.891 1.513 2.73a12.3 12.3 0 0 1 2.059-.168c1.47 0 2.73.378 4.157 1.261.126.084 3.74 2.394 3.74 7.729h-41.033l.042-3.613c.042-4.872-2.352-10.039-8.274-10.039-5.503 0-8.443 4.158-8.443 9.241 0 7.52 6.805 8.528 11.93 8.654 2.563-.126 9.955 0 9.703-.042h49.47v-.055c2.293-.161 3.908-.732 5.166-1.919 1.267 1.122 2.476 1.773 4.451 1.932v.042h2.103v-.036c2.41-.169 4.3-.959 5.668-2.401 1.471 1.512 3.571 2.437 6.092 2.437 2.395 0 4.326-.925 5.713-2.353 1.327 1.402 3.175 2.155 5.54 2.318v.035h2.106v-.036c2.409-.169 4.298-.959 5.665-2.401 1.471 1.512 3.571 2.437 6.092 2.437 2.394 0 4.326-.925 5.713-2.353 1.48 1.563 3.61 2.316 6.38 2.347v.006h1.512c4.827-.169 7.18-3.193 7.18-7.141m-127.969 2.94c-2.772-.084-8.359.588-8.359-4.957 0-3.024 1.303-5.167 3.907-5.167 4.032 0 4.494 3.571 4.494 7.1 0 1.05-.042 2.099-.042 3.024m81.688.672c-2.646 0-3.949-2.1-3.949-5.083 0-3.57 1.345-5.671 4.327-5.671 2.563 0 3.864 2.101 3.864 5.125 0 3.528-1.26 5.629-4.242 5.629m25.115 0c-2.646 0-3.949-2.1-3.949-5.083 0-3.57 1.345-5.671 4.327-5.671 2.562 0 3.864 2.101 3.864 5.125 0 3.528-1.26 5.629-4.242 5.629m28.684 3.528h1.933V78.423c0-1.386-1.471-2.395-2.688-2.395h-2.143v22.097c-.001 2.227 1.427 3.234 2.898 3.234m-305.309 40.019c-.63-1.47-1.806-2.983-3.151-3.571 2.941-.42 5.209-3.276 5.209-6.721 0-4.243-3.276-7.267-8.317-7.267h-2.815c-1.89 0-5.419.504-6.511.924v21.213c0 2.017 1.176 3.403 3.445 3.403h1.638v-10.166c.504 0 1.386.169 2.521.337 1.302.21 2.394.42 3.528 3.192l1.891 4.579c.672 1.596 2.058 2.226 3.696 2.226 1.386 0 1.849-.168 2.436-.798-.293-.462-.923-1.134-1.554-2.604zm-6.89-6.049c-1.387 0-2.521 0-3.613-.21v-6.68c.546-.168 1.764-.252 2.226-.252h1.429c2.226 0 3.78.673 3.78 3.739.001 2.227-1.764 3.403-3.822 3.403m21.378-5.46c-6.133 0-9.41 4.62-9.41 10.333 0 5.041 3.277 9.578 8.99 9.578 6.133 0 9.41-4.537 9.41-10.25 0-5.041-3.277-9.661-8.99-9.661m0 15.668c-3.15 0-4.537-2.226-4.537-6.007 0-3.151 1.387-5.419 4.117-5.419 3.108 0 4.495 2.268 4.495 6.091 0 3.109-1.345 5.335-4.075 5.335m25.704-15.249h-2.058c-.421 3.907-2.143 9.662-3.697 13.232-1.722-3.36-3.108-7.309-3.781-11.006-.252-1.344-1.47-2.226-2.772-2.226h-2.521c.673 4.495 4.243 13.946 6.764 17.727-1.05 2.773-1.639 3.403-3.361 3.487l-2.688.168v.924c0 1.764 1.554 2.941 3.318 2.941 3.445 0 5.293-1.933 8.822-10.25.882-2.059 4.201-10.754 4.201-12.771 0-1.554-.714-2.226-2.227-2.226m11.466-.336c-4.999 0-6.889 2.52-6.889 4.663v1.512h.168c.714-.882 2.604-2.184 6.049-2.184 2.815 0 4.075.798 4.075 3.486v.252h-1.639c-7.015 0-9.493 2.563-9.493 5.965 0 3.487 3.109 6.049 7.645 6.049h.966c4.201 0 7.184-2.814 7.184-6.847v-4.369c0-6.553-3.823-8.527-8.066-8.527m3.445 12.938c0 1.933-1.008 2.94-3.025 2.94-2.1 0-3.276-.881-3.276-2.352 0-1.554 1.008-2.394 4.62-2.394h1.681zm21.882-12.602h-.882V141c0 3.234-1.345 4.579-3.319 4.579-2.142 0-3.822-1.387-3.822-4.915v-6.974c0-2.226-1.219-3.402-3.907-3.402h-.883v10.838c0 5.545 3.697 8.653 8.402 8.653 5.503 0 8.317-3.024 8.317-8.947v-7.142c.001-2.226-1.176-3.402-3.906-3.402m29.149-.42c-2.311 0-4.369 1.218-5.461 2.982-1.386-1.848-3.319-2.982-5.797-2.982-5.755 0-8.486 3.486-8.486 8.653v7.393c0 2.185 1.513 3.445 3.445 3.445h1.26v-11.216c0-2.604 1.387-4.074 3.235-4.074 2.058 0 3.529 1.344 3.529 4.494v7.351c0 2.227 1.344 3.445 3.444 3.445h1.26v-11.342c0-2.604 1.302-3.948 3.235-3.948 2.058 0 3.486 1.344 3.486 4.494v7.351c0 2.227 1.009 3.445 3.571 3.445h1.176v-11.426c0-5.419-3.528-8.065-7.897-8.065m29.231 7.394c0-4.537-3.697-7.393-7.645-7.393-5.419 0-9.284 3.99-9.284 10.333 0 5.84 4.621 9.578 9.326 9.578 5.251 0 6.889-1.848 6.889-4.285v-1.512h-.168c-1.512 1.428-3.865 1.806-5.839 1.806-2.772 0-4.957-1.512-5.335-3.907h3.108c6.302-.001 8.948-1.133 8.948-4.62m-12.056 1.259v-.63c.126-2.184 1.722-4.075 3.991-4.075 2.184 0 3.613.966 3.613 2.857 0 1.344-1.009 1.848-5.504 1.848zm40.32-15.836h-1.47v10.208c-.715-1.681-2.814-3.024-4.705-3.024-5.545 0-8.569 4.074-8.569 10.333 0 5.209 3.822 9.578 8.821 9.578 6.553 0 9.157-3.655 9.157-9.2v-14.66c0-1.933-1.007-3.235-3.234-3.235m-5.335 23.104c-2.729 0-4.789-2.563-4.789-6.511 0-3.067 1.555-5.419 3.991-5.419 2.521 0 4.621 1.722 4.621 6.511 0 3.444-1.177 5.419-3.823 5.419m26.839-15.501h-.883V141c0 3.234-1.344 4.579-3.318 4.579-2.143 0-3.822-1.387-3.822-4.915v-6.974c0-2.226-1.219-3.402-3.907-3.402h-.883v10.838c0 5.545 3.697 8.653 8.402 8.653 5.503 0 8.317-3.024 8.317-8.947v-7.142c0-2.226-1.177-3.402-3.906-3.402m42.169-6.259h-.588c-1.092.84-2.646 3.445-3.948 7.436l-2.94 8.989c-.295.84-.505 1.638-.715 2.604-.21-1.176-.672-2.688-1.428-4.83l-3.528-9.914c-.967-2.689-3.403-4.285-6.932-4.285h-1.092c-.925 5.041-2.016 16.299-2.016 21.97 0 2.142 1.301 3.361 3.191 3.361h1.765c0-4.621.42-14.787 1.092-18.4.378.882.966 2.395 1.429 3.697l3.612 10.67c.924 2.73 2.395 4.033 4.074 4.033h1.345c.714-1.009 1.512-2.689 2.101-4.495l3.528-10.88c.378-1.134.84-2.185 1.176-2.983.421 2.479.967 11.762.967 14.997 0 2.268 1.344 3.361 3.276 3.361h1.891c0-5.083-.757-16.089-1.219-20.08-.42-3.487-2.185-5.251-5.041-5.251m17.973 5.923c-4.999 0-6.89 2.52-6.89 4.663v1.512h.168c.714-.882 2.604-2.184 6.049-2.184 2.814 0 4.075.798 4.075 3.486v.252h-1.639c-7.015 0-9.493 2.563-9.493 5.965 0 3.487 3.108 6.049 7.645 6.049h.966c4.201 0 7.185-2.814 7.185-6.847v-4.369c0-6.553-3.823-8.527-8.066-8.527m3.445 12.938c0 1.933-1.009 2.94-3.024 2.94-2.101 0-3.277-.881-3.277-2.352 0-1.554 1.009-2.394 4.621-2.394h1.681zm16.085-12.77c-5.041 0-7.016 3.654-7.016 7.435v8.78c0 1.974 1.345 3.024 3.444 3.024h1.302v-10.922c0-2.898 1.177-4.074 3.277-4.074 1.26 0 2.059.294 2.772.546h.168v-1.681c.001-1.428-1.049-3.108-3.947-3.108m14.952-.251c-6.133 0-9.409 4.62-9.409 10.333 0 5.041 3.276 9.578 8.989 9.578 6.133 0 9.409-4.537 9.409-10.25 0-5.041-3.276-9.661-8.989-9.661m0 15.668c-3.15 0-4.537-2.226-4.537-6.007 0-3.151 1.387-5.419 4.117-5.419 3.108 0 4.495 2.268 4.495 6.091 0 3.109-1.345 5.335-4.075 5.335m22.47-11.048c2.688 0 4.495.882 5.125 1.974h.21v-2.226c0-2.269-2.184-4.117-5.209-4.117-6.511 0-10.249 4.663-10.249 10.082 0 5.461 4.494 9.494 9.703 9.494 3.445 0 5.671-1.639 5.671-3.949v-2.184h-.168c-.672.882-2.312 1.764-5.041 1.764-3.192 0-5.251-2.353-5.251-5.797 0-2.856 2.436-5.041 5.209-5.041M112.821 420.826h-6.92v12.246h-3.877v-12.246h-6.965v-3.686h6.965v-12.246h3.877v12.246h6.92zm19.024-.759q2.862 0 4.801 1.886 1.938 1.886 1.938 4.639c0 2.753-.646 3.381-1.938 4.638q-1.94 1.887-4.801 1.886-2.818 0-4.756-1.886t-1.938-4.638c0-2.752.646-3.382 1.938-4.639q1.938-1.887 4.756-1.886m3.651 6.481q0-1.56-1.059-2.579-1.06-1.019-2.592-1.019-1.465 0-2.524 1.019-1.06 1.02-1.06 2.579 0 1.517 1.06 2.558 1.059 1.04 2.524 1.041 1.532 0 2.592-1.041 1.059-1.04 1.059-2.558m35.772 6.524h-21.707v-28.135h21.707v3.729H153.46v20.678h17.807v3.728zm19.564-13.005q2.862 0 4.801 1.886 1.938 1.886 1.938 4.639c0 2.753-.646 3.381-1.938 4.638q-1.94 1.887-4.801 1.886-2.818 0-4.756-1.886t-1.938-4.638c0-2.752.646-3.382 1.938-4.639q1.938-1.887 4.756-1.886m3.651 6.481q0-1.56-1.059-2.579-1.06-1.019-2.592-1.019-1.465 0-2.524 1.019-1.06 1.02-1.06 2.579 0 1.517 1.06 2.558 1.059 1.04 2.524 1.041 1.532 0 2.592-1.041 1.059-1.04 1.059-2.558m33.969 2.84v-24.493h3.877v28.178h-23.781v-28.178h3.945v24.493zm22.81-9.321q2.862 0 4.801 1.886 1.938 1.886 1.938 4.639c0 2.753-.646 3.381-1.938 4.638q-1.94 1.887-4.801 1.886-2.818 0-4.756-1.886t-1.938-4.638c0-2.752.646-3.382 1.938-4.639q1.938-1.887 4.756-1.886m3.652 6.481q0-1.56-1.059-2.579-1.06-1.019-2.592-1.019-1.465 0-2.524 1.019-1.06 1.02-1.06 2.579 0 1.517 1.06 2.558 1.059 1.04 2.524 1.041 1.532 0 2.592-1.041 1.059-1.04 1.059-2.558m43.3-7.369q-.045 5.766-4.316 9.808-4.272 4.043-10.313 4.043-6.018 0-10.211-4.064c-4.193-4.064-4.223-5.972-4.283-9.786q-.045-5.852 4.192-10.047c4.237-4.195 6.259-4.194 10.301-4.194q6.086 0 10.38 4.194 4.296 4.193 4.25 10.046m-4.057 0q.045-4.356-3.077-7.435t-7.495-3.035q-4.396.044-7.393 3.122-2.998 3.077-2.998 7.304.045 4.118 3.043 7.121 2.998 3.002 7.348 3.045 4.328.043 7.427-2.98t3.145-7.142m-14.314-.044q-.09-1.517.969-2.688 1.06-1.17 2.817-1.127 1.601.043 2.671 1.171 1.07 1.126.958 2.688-.09 1.365-1.104 2.352c-1.014.987-1.518.986-2.525.986q-1.668.043-2.682-.965c-1.014-1.008-1.044-1.478-1.104-2.417m48.552 1.691h-6.92v12.246h-3.877v-12.246h-6.965v-3.686h6.965v-12.246h3.877v12.246h6.92zm32.93 12.904h-3.498v-26.705h3.498zm33.215-11.625h-6.316v11.625h-3.539v-11.625h-6.357v-3.497h6.357v-11.625h3.539v11.625h6.316zm32.084-15.122 11.274 26.747h-3.827l-9.402-22.2-9.423 22.2h-3.848l11.337-26.747zm47.062 26.747h-19.813v-26.705h19.813v3.538h-16.254v19.628h16.254zm44.202-13.188q-.042 5.473-3.94 9.311-3.9 3.837-9.413 3.837-5.494 0-9.319-3.857-3.827-3.858-3.909-9.29-.042-5.555 3.826-9.536t9.402-3.98q5.556 0 9.475 3.98t3.878 9.535m-3.704 0q.041-4.135-2.808-7.057-2.85-2.921-6.842-2.881-4.012.042-6.748 2.963t-2.736 6.934q.04 3.909 2.777 6.759t6.707 2.891q3.951.041 6.779-2.829 2.829-2.871 2.871-6.78m-13.065-.041q-.082-1.44.885-2.551t2.572-1.07q1.46.041 2.438 1.111c.978 1.07.943 1.563.875 2.551q-.084 1.296-1.009 2.232c-.925.936-1.386.937-2.304.937q-1.523.04-2.449-.916a3.5 3.5 0 0 1-1.008-2.294m39.676.885q2.613 0 4.383 1.79t1.77 4.403-1.77 4.402q-1.77 1.79-4.383 1.79-2.572 0-4.341-1.79c-1.769-1.79-1.77-2.661-1.77-4.402q0-2.613 1.77-4.403c1.77-1.79 2.626-1.79 4.341-1.79m3.333 6.151q0-1.48-.967-2.448-.968-.967-2.366-.967-1.337 0-2.305.967-.967.968-.967 2.448 0 1.441.967 2.429.968.987 2.305.987 1.4 0 2.366-.987.967-.988.967-2.429m40.8-22.428 11.275 26.747h-3.826l-9.403-22.2-9.423 22.2h-3.848l11.337-26.747zm33.236 15.164q2.613 0 4.383 1.687t1.77 4.115q0 2.407-1.77 4.073t-4.383 1.667q-2.572 0-4.342-1.667-1.77-1.666-1.769-4.073 0-2.427 1.769-4.115 1.77-1.687 4.342-1.687m.123-15.122q2.613 0 4.383 1.677 1.77 1.675 1.77 4.125 0 2.407-1.77 4.073t-4.383 1.667q-2.551 0-4.33-1.667-1.78-1.666-1.779-4.073 0-2.45 1.779-4.125 1.78-1.677 4.33-1.677m3.375 20.883q0-1.461-1.008-2.459t-2.49-.998q-1.42 0-2.438.998-1.02.998-1.02 2.459 0 1.44 1.02 2.428a3.38 3.38 0 0 0 2.438.987q1.481 0 2.49-.987 1.008-.988 1.008-2.428m.123-15.122q0-1.482-1.008-2.47-1.008-.987-2.49-.987-1.419 0-2.428.987t-1.008 2.47q0 1.44 1.008 2.428a3.35 3.35 0 0 0 2.428.987q1.482 0 2.49-.987 1.008-.988 1.008-2.428m20.706 5.657h8.168v-2.53q-4.466-.164-6.357-1.934-2.839-2.613-2.921-7.346h3.58q.349 3.293 1.439 4.424 1.173 1.234 4.259 1.357v-5.781h3.539v5.781q3.106-.123 4.259-1.357 1.132-1.131 1.461-4.424h3.58q-.083 4.733-2.901 7.346-1.893 1.77-6.398 1.934v2.53h8.25v3.416h-8.25v2.469q4.506.185 6.398 1.954 2.82 2.572 2.901 7.325h-3.58q-.33-3.333-1.461-4.424-1.153-1.255-4.259-1.358v5.782h-3.539v-5.782q-3.086.103-4.259 1.358-1.09 1.09-1.439 4.424h-3.58q.082-4.753 2.921-7.325 1.893-1.769 6.357-1.954v-2.469h-8.168zm64.304 2.099q-.103 5.144-3.498 8.848l3.95 4.382h-3.909l-2.201-2.448q-3.292 2.366-7.592 2.366-5.39 0-9.218-3.857-3.827-3.858-3.868-9.29-.061-5.637 3.776-9.577 3.837-3.939 9.31-3.939 5.534 0 9.413 3.96 3.878 3.96 3.837 9.555m-6.028 6.028q1.255-1.192 1.975-3.456.37-1.276.412-2.654 0-4.135-2.819-7.077-2.818-2.964-6.646-2.86-4.053.042-6.81 2.963-2.758 2.921-2.757 7.057.123 3.868 2.839 6.718t6.646 2.891q3.785-.04 5-1.398l-5.144-5.967v-4.301zm30.869-4.588v11.748h-8.395v-3.539h4.855v-19.669h-4.752v-3.497h8.291v11.459h4.855v-11.459h8.333v3.497h-4.794v19.669h4.876v3.539h-8.415v-11.748z"/>
</g>
</svg>
