<svg xmlns="http://www.w3.org/2000/svg" width="2362.667" height="1574.667" viewBox="0 0 1772 1181">
<path d="M450.5 58.6C401 61.9 352.1 75.9 309.6 99c-61.1 33.3-109.9 84.1-140.6 146.5-22.4 45.4-33.1 88.2-34.7 139-3.5 114 51.7 221.9 146.7 286.8C412.6 761 590 745.8 704.4 635c26.9-26.1 47.6-53.8 64.5-86.1 7.1-13.8 15.6-32.7 14.9-33.5-.2-.2-4.4-1.5-9.3-2.9-21.3-6.2-36.5-16.2-47.1-31.2-9.3-12.9-14.7-29.5-14.7-45.1V427l-4.1 3.3c-2.2 1.9-13.3 10.9-24.6 20.1-23.5 19.3-43.8 34.7-56 42.7-30 19.7-56.6 28.3-76.9 24.9-25.8-4.3-47.4-31.1-44.6-55.3 2-18.4 11.7-35.8 30.4-55.1 18.4-18.8 38.6-33.3 63.6-45.6 16.5-8.1 27.9-12.2 41.5-15 17.9-3.6 28-2.3 32 4.2 3.1 5.1 2.5 8.7-3.2 20-16.6 32.5-48.7 58.1-91.3 72.8-12.2 4.2-29.4 9-39.7 11-5.3 1-5.8 1.4-6.9 4.8-2.1 6.4-1.6 14.4 1.3 19.3 2.8 4.7 5.7 7.2 12.8 11 4 2.1 5.7 2.4 16 2.3 10.4 0 12.3-.3 19.9-3.2 21.4-8.1 44-23.7 106.6-73.7 54.2-43.3 77.7-60 106.3-75.6 7.2-3.9 7.1-1.6 1.7-24.4-18.8-79.5-67.7-150.7-135.7-197.7C617 86.7 564.2 66.9 510 60.5c-13.3-1.5-47.9-2.6-59.5-1.9m-80.4 156.3c2.4 2.5 2.9 3.7 2.9 8.1 0 9-1 9.9-20.5 19.4-37.9 18.4-69.3 39.9-97 66.8-31.6 30.5-50.6 60.6-58.6 92.8-3.1 12.5-3.4 37.7-.5 48 6 22 21.1 36.8 43.3 42.4 33.8 8.7 87.4-.9 143.3-25.6 32.1-14.2 68.2-38.3 92.4-61.8 18.6-18 26.9-29.5 39.7-55 13.9-27.6 18.8-43.2 19.6-62.1.5-11.2.3-13.4-1.8-20.4-15.6-52.7-82-37.6-190.3 43.3-16.4 12.2-19.5 14.2-22.7 14.2-4.3 0-8.1-2.7-9.9-7-1.6-3.9-.8-11.5 1.6-14.1 3-3.3 43.6-33.7 58.9-44.1 33.9-23.1 61.6-36 89.5-41.9 15.3-3.3 40.8-3.3 53.4-.1 24.6 6.2 37.9 20 43.8 45.2 3.2 13.9 3.2 37.4 0 51.9-10.2 45.9-41.8 90.8-92.4 131.2-30.2 24.1-62.5 41.2-103.6 54.9-74.4 24.7-134.6 24.5-165.7-.7-12.1-9.8-20.8-25.8-24-43.8-1.7-10.2-2-31.9-.4-43.2 5.6-41.1 27.8-81.2 66.4-119.8 29.7-29.8 69.5-57.3 109.2-75.6 15.1-6.9 19-7.4 23.4-3"/>
<path d="M798.5 368.7c-18.2 11.2-41 31.2-50 43.8-14.4 20.2-14.8 34.5-1.5 50.9 5.9 7.2 11.4 12 20.3 17.6 5.9 3.7 21 10 24.1 10 1.7 0 4.5-10 8.6-30 3.7-18.3 5.7-34.4 6.6-53.5.7-15.3-.3-42.5-1.5-42.5-.4 0-3.3 1.7-6.6 3.7M634 373.1c-14.9 4.1-33.8 14-50 26-8.5 6.4-28 24.4-28 26 0 .4 2.1.1 4.8-.8 31-10.1 51.2-21.3 67.8-37.8 8.5-8.4 13.2-14.1 12.3-14.9-.2-.2-3.3.5-6.9 1.5m837.4 378.5c-5.9 2.9-8.4 11.8-6.1 21.1.8 3.2.8 3.3-2.6 3.3-2.7 0-3.6.5-4.5 2.5-.7 1.4-1.2 2.8-1.2 3 0 .3 7.4.5 16.3.5h16.4l1.1-2.5c.7-1.4 1.2-2.8 1.2-3 0-.3-3.6-.5-7.9-.5-10.3 0-12.2-1.4-12.9-9.3-.4-5-.2-5.8 2.1-8.1 3.3-3.2 6.4-3.3 11-.2 3.5 2.4 3.6 2.4 5.2.6 5.3-5.8-9.3-11.8-18.1-7.4m-949.1 12.1-3.3.4v52.2c0 34.8.4 53.5 1.1 56.2 1.4 5.1 6.5 10 11.7 11.4 2.9.8 24.4 1.1 72.9.9l68.8-.3 6-3c3.3-1.6 6.3-3 6.6-3.2s1.1.8 1.7 2.1c1.9 4.3 8.4 10.7 13.2 13.1 6.6 3.4 15.4 4.7 23.1 3.6 11.2-1.6 18.2-5.8 22-13.2 1.1-2.2 2.3-3.9 2.7-3.9s3.6 1 7.2 2.1c7.9 2.6 22.3 3.1 29.3 1 6.3-1.8 12.8-7.7 15.8-14.3l2.4-5.3.3-50.4.3-50.4-2.3.7c-1.3.3-3.5.6-5 .6h-2.7l-.3 48.3-.3 48.3-2.6 4.9c-3.6 7.2-8.4 9.6-18.6 9.6-7.5 0-15.7-1.8-19.8-4.4-1.7-1-2-2.3-2-9.7-.2-20.8-10.5-32.4-30.2-33.7-18.7-1.3-32.2 8.1-35.3 24.7-2.1 11.1-3.9 15.7-7.5 18.9-4.7 4.1-6.8 4.5-21.5 4.6h-12.5l-.8-5.5c-3.6-25.5-5.6-32.7-11.7-43-10.3-17.5-28.2-26.9-45.9-24.1-12.3 2-13.4 2.6-16.3 8.5l-2.7 5.4 5.2-2.1c7.7-3.1 26.3-3.1 32.9 0 10.4 4.8 20.1 17 24.4 30.8 2.7 8.7 5.6 28.5 4.4 29.8-.4.5-22.6.7-49.3.5l-48.7-.3-2.5-2.6c-1.5-1.4-3-4.3-3.5-6.5-.5-2.1-1-26.3-1-53.7 0-39.2-.3-49.7-1.2-49.5-.7 0-2.8.3-4.5.5m205.2 74.2c10.5 4.9 15.7 18.4 12.6 33.3-1.6 7.4-4.6 11.8-10.1 14.6-3.9 2-5.7 2.3-13.7 2-8.4-.3-9.4-.5-13-3.4-8.1-6.4-11.5-20.5-7.8-33 1.9-6.7 7.3-12.7 12.8-14.3s14.9-1.2 19.2.8m105.3-74.2-3.8.4V885h10v-61c0-48.2-.3-61-1.2-60.8-.7.1-3 .3-5 .5m150 0-3.8.4V885h10v-61c0-48.2-.3-61-1.2-60.8-.7.1-3 .3-5 .5m283.5 0-3.1.4-.5 46.7c-.4 48.7-.6 50.8-5 57.3-3.7 5.7-8.1 7.1-23.2 7.7l-13.4.5-.5-2.4c-.3-1.3-1-6.7-1.6-11.9-1.9-16.3-5.1-26.2-12.3-37.7-9.7-15.7-27-23.8-44.9-21.3-10.3 1.5-13.3 3.1-15.6 8.2-1 2.4-1.8 4.4-1.7 4.6.1.1 2.2-.5 4.6-1.4 3.1-1.2 7.8-1.7 15.9-1.8 11.1-.1 11.8 0 18.2 3.2 10.3 5 17.7 14.4 22.4 28.2 2.1 6.3 5.4 24.5 5.4 30v2.2l-42.7-.4c-40.7-.4-43.1-.6-49.5-2.6-3.6-1.2-7.6-3-8.9-4-2-1.7-2.1-2.1-.9-5.3.9-2.4 1.4-11.7 1.8-32.2l.4-28.7h-3.8c-2.2 0-4.4.4-5.1.8-.8.5-1.2 8.9-1.6 27.7-.2 16.7-.9 28.4-1.6 30.7-1.5 4.6-5.4 9.4-9.4 11.4-6.5 3.4-25.3 1-33.3-4.3l-2.4-1.5v-32.4c0-36.1.6-33.3-6.9-31.8l-3.1.6V847c0 39.9-.1 43.2-2 49.2-2.2 7.1-6.4 12.4-12.3 15.1-4.1 2-17.9 4.1-20.7 3.2-2.5-.8-2.5-.4 0 4.5l2 4h6.3c22-.1 34.6-12.3 36.3-35.4l.7-8.4 5.2 1.9c16 5.6 34.4 4.3 40.8-2.9l1.8-2 6.2 2.8c12.4 5.5 12.1 5.5 79.2 5.5 56.7 0 62.4-.2 67.1-1.8 6.1-2.1 11.4-7.3 14.6-14.2 2.3-5 2.3-5.2 2.6-55.3.2-40.6 0-50.2-1-50-.7 0-2.7.3-4.5.5m34.5 0-3.8.4V885h10v-61c0-48.2-.3-61-1.2-60.8-.7.1-3 .3-5 .5"/>
<path d="M1172 773v9h10v-18h-10zm224 6.5v8.5h8v-17h-8zm20 0v8.5h9v-17h-9zm-1250.8 4.2.3 8.8 4.8.3 4.7.3V775h-10.1zm1443.3 18.7c-7.3 1.7-11.5 3.3-11.5 4.3 0 .5.5 2.4 1 4.4l1 3.6 5.3-1.8c17.3-5.9 36.4-1.6 45.7 10.1 7.5 9.5 10.3 20.9 9.8 40.5l-.3 12-12.1.3-12.1.3-.6-9.8c-.8-12.1-2.9-18.5-7.7-23.3-9.5-9.5-28.1-6.6-33.8 5.1-2.3 4.7-4.1 15.2-4.2 23.3v4.9l-16.7-.6c-16.7-.6-21.4-1.5-30.6-5.8-2.4-1.1-2.7-1.7-2.1-3.8.4-1.5.9-16.2 1.1-32.9l.4-30.2h-3.3c-1.8 0-3.8.4-4.5.8-.8.5-1.2 8.8-1.5 27.7-.4 22.3-.8 27.8-2.2 31.5-3.4 9-8.5 12-20 12-8 0-18.2-2.7-22.4-5.9-2.1-1.5-2.2-2-1-4.6.8-2.1 1.3-11.7 1.6-32.6l.4-29.7-4.4.9c-2.4.4-4.6.8-5 .9-.5 0-.8 11.6-.8 25.7-.1 27-.7 32.7-4.3 38-4.2 6.2-8.1 7.4-23.5 7.6l-13.7.2-.3-34.2-.2-34.2-7.6-1.6c-5.3-1.2-10.6-1.6-18.2-1.3-9.6.3-11.3.7-16.1 3.3-10.9 6-15.7 16.9-14.9 34.1.7 15.2 5.3 23.5 15.6 28.1 4.1 1.8 20.8 2.4 27.5 1l3.7-.8v15.3l20.3-.4c21.6-.4 24.3-1 31.3-6.3 2.8-2.1 3.3-2.2 5.1-1 1.1.8 5.6 2.6 9.9 4.1 14.5 4.9 32.2 3.5 38.3-3l2.3-2.4 6.6 3c11.8 5.4 16.5 5.7 75.5 5.8h53.9l-.4-24.8c-.3-22.7-.5-25.1-2.6-30.2-5-12.4-14.1-21.5-26.1-26.1-7.2-2.8-22.9-3.5-31.6-1.5m-185.6 12.2 3.1.6v44.5l-5.7 1.2c-21.1 4.2-31.3-3.2-31.3-22.6 0-16.4 7.5-24.3 23.1-24.3 4.2 0 9.1.3 10.8.6m197.1 35.2c3.7 3.7 5.2 9.4 4.8 18.5l-.3 7.2-12.7.3-12.8.3V867c0-14.4 3.7-20 13.2-20 4.1 0 5.4.5 7.8 2.8M264.5 802.6c-.5.1-2.7.5-4.7.9l-3.7.6-.3 28.2c-.3 28-.3 28.3-2.9 33.2-3.6 7.1-8.6 9.7-18.3 9.7-8.4-.1-14-1.4-20.8-4.8L209 868v-32.5c0-36.3.6-33.4-6.9-31.9l-3.1.6v93.6l-2.2.6c-1.3.3-8.6 1.1-16.4 1.7-16.6 1.5-25 .5-32-3.6-5.4-3.2-9.8-9.7-11.3-16.6-.7-3-1.1-19.6-1.1-41.2l-.1-36.2-4.9 5.5-5 5.5v30c0 16.5.5 32.9 1.1 36.4 2.2 14 9.6 23.3 21.8 27.3 5.7 1.9 8.7 2.2 21.6 2.1s35.3-2.4 37.7-3.9c.4-.3.8-6.4.8-13.6 0-12 .1-13 1.8-12.3 16.3 6.8 33 6.9 43 .1 4.2-2.8 5.1-3.1 6.8-2 1 .7 5.5 2.5 9.9 4 6.5 2.2 9.8 2.7 18 2.8 10.6 0 16.5-1.7 21-6.1 2-1.9 2-1.9 7.3.5 8.9 4.1 15.1 5.3 29.2 5.9 13.9.5 22.8-.4 28.2-3.2 2.6-1.2 3.8-1.3 9.1 0 9.3 2.1 27.5 3.7 33.7 3 6.2-.8 12.5-3.3 15.5-6.2 2-1.9 2-1.9 8 .7 8.8 4 15.9 5.4 26 5.4 7.9 0 9.8-.3 14.7-2.7 6.7-3.3 10.4-7.9 12.9-15.9 1.7-5.2 1.9-9.5 1.9-34.4V803h-3.2c-1.8 0-3.8.4-4.4.8-.8.5-1.3 9.1-1.6 27.7-.5 28.3-1 31.1-5.4 37.1-6 8.1-20.8 8.9-36.7 2.2-4.4-1.9-4.8-2.3-4.2-4.7 1.7-6.6 2.4-17.3 2.5-37.4V807l-2.5.5c-1.4.3-3.6.7-4.9 1l-2.4.5-.4 25.2c-.3 21.5-.6 25.9-2.1 29.3-4.1 9.2-9 11.7-22.4 11.6-7.7-.1-22.7-2.2-23.9-3.3-.1-.2.6-2.8 1.6-5.8 1.7-4.7 1.9-8.6 2-27.8V816h-3.2c-1.8 0-3.8.4-4.4.8-.8.5-1.3 7.3-1.6 21.2-.5 22.3-1.4 26.9-6.5 32.2-4.2 4.4-8.4 5.3-23.3 5.2-13.8-.1-18.8-1-27.3-4.7-4.7-1.9-4.9-2.2-4.2-5.1 1.9-9.2 2.5-17.3 2.5-38.9V803h-2.7c-1.6 0-3.8.3-5 .6-2.1.6-2.1.9-2.5 28.2-.3 23.9-.6 28.3-2.1 31.7-3.9 8.7-8.8 11.5-20.4 11.5-5.7 0-9.7-.7-14.7-2.5-9.5-3.3-9.8-3.7-8-10.5 1.1-4.3 1.4-11.5 1.2-32.6-.2-17.4-.7-27-1.3-26.8M924.7 826c-9.1 2.3-15.7 8.6-18.3 17.7-2.2 7.6-1.5 20.4 1.5 26.6 1.1 2.4 2.1 4.6 2.1 5 0 .3-3.2.7-7.2.9l-7.1.3-1.8 4.2-1.8 4.3H951l2-4c1.1-2.1 2-4.1 2-4.3 0-.3-6.4-.6-14.3-.9-12-.3-14.9-.7-17.7-2.4-5.3-3.1-7.3-7.4-7.8-17-.4-7-.1-8.9 1.7-12.6 2.6-5.2 6-7.8 11.1-8.5 6-.8 10.5.4 15.6 4.3l4.6 3.6 3.4-3.3 3.4-3.3-3.1-3.2c-6-6.1-18.5-9.5-27.2-7.4M310 913.9v9.1h10.1l-.3-8.8-.3-8.7-4.7-.3-4.8-.3zm791 0v9.1h10.1l-.3-8.8-.3-8.7-4.7-.3-4.8-.3zm-864 1.2v9l4.3-.3 4.2-.3.3-8.8.3-8.7H237zm20-.1v9h9v-18h-9zm1255 0v9h9v-18h-9zm21 0v9h8v-18h-8z"/>
</svg>
