<svg xmlns="http://www.w3.org/2000/svg" width="174.667" height="130.667" viewBox="0 0 131 98">
<path d="M54.5 1.9c-2.4.5-3.1 1.2-3.3 3.4l-.3 2.8 4.8-.7c6-.8 6.3-1 6.3-4 0-2.6-1.3-2.8-7.5-1.5m9.9 1.3c.1 1.8.9 2.4 3.6 3 7 1.4 8.2 1.1 7.8-2-.3-2.5-.6-2.7-5.9-3-5.2-.3-5.6-.2-5.5 2m15.8 2c.2 2.6.9 3.3 4.1 4.4l3.8 1.3-.3-3.1c-.2-2.6-.9-3.3-4.1-4.4l-3.8-1.3zm-37.9.4C39.6 6.7 39 7.6 39 10v3l4.3-2.1c3.2-1.6 4.2-2.6 4.2-4.5 0-2.7-.7-2.8-5.2-.8M92 10c0 2.1.8 3.4 2.6 4.7 2.5 1.6 2.7 1.6 4-.2 1.6-2.2.6-3.8-3.8-6.1C92 7 92 7 92 10m-59.4 1.1c-1.5 1.2-2.6 3-2.6 4.5v2.5l3-1.8c2.2-1.3 3-2.5 3-4.5 0-3.3 0-3.4-3.4-.7m68.3 5.1c-1 1.9-.8 2.5 1.7 4.4 2.5 2.1 2.9 2.1 4 .6.9-1.3.9-2.1-.3-3.8-2.1-3.2-4.1-3.7-5.4-1.2m-76.7 2.1c-1.4 1.5-2 3-1.6 4 .8 2.2 1 2.1 3.5-.4 1.6-1.6 1.9-2.6 1.2-4.1-.8-1.9-.9-1.8-3.1.5m84 4.8c-1.8 2.8-.2 4.6 2.9 3.3 2-.9 2-1 .2-3.2l-1.8-2.3zm-90 2.4c-.6 1.4-.9 3.2-.5 4.1.5 1.4.8 1.3 2.3-.6 1.6-2.2 1.6-6 0-6-.4 0-1.2 1.1-1.8 2.5m-4 8c-1.5 3.2-1.5 4.8-.2 4 1.7-1.1 2.9-4.1 2.1-5.3-.5-.9-1.1-.5-1.9 1.3m99.3-1.5c-.3.5.2 2.1 1.1 3.5 2.1 3.2 3.9 1.9 2.5-1.8-1.1-2.8-2.5-3.5-3.6-1.7m4.6 9.5c0 1.1.4 2.9.9 4 .8 1.8.9 1.8.9-.5 0-1.4-.4-3.2-.9-4-.8-1.2-1-1.2-.9.5M14.7 61.1c-2.6 1.5-4.7 6.3-4.7 10.7 0 5 2.9 8.8 8 10.3 3.2 1 4.4.9 7.6-.7C30.2 79.1 32 76 32 70.2c0-3.5-.6-4.9-2.9-7.3-1.6-1.6-3.7-2.9-4.5-2.9-1.1 0-.7.8 1.4 2.7 7.6 6.9 2.9 20.3-6.5 18.5-8.2-1.5-9.9-17.1-2.2-20.2 1.2-.5 1.5-.9.7-.9s-2.3.4-3.3 1m23.1.1c.8.8 1.2 4.5 1.2 10 0 7.2-.3 8.9-1.7 9.7s-.8 1 2.7 1c2.5-.1 3.7-.3 2.8-.6-1.4-.3-1.8-1.5-1.8-4.9V72h4.2c4.8 0 4.4-1.4-.5-1.4-3.1-.1-3.2-.2-3.5-4.9l-.3-4.7h4c2.2 0 4.2.5 4.4 1.2.3.8.6.6.6-.5.1-1.5-.9-1.7-6.6-1.7-5.2 0-6.4.3-5.5 1.2m17-.5c.8.3 1.2 3.4 1.2 10.3s-.4 10-1.2 10.3c-.7.3.5.6 2.7.6 3.2 0 3.6-.2 2.3-1-1.2-.7-1.8-2.2-1.8-4.9 0-4 0-4 4-4 2.2 0 4-.3 4-.8 0-.4-1.7-.7-3.7-.7h-3.8l-.3-4.8-.3-4.7H62c3.3 0 4.2.4 5 2.2.8 2.2.9 2.2.9-.5L68 60l-7.2.1c-4 0-6.7.3-6 .6m18 0c.8.3 1.2 3.3 1.2 9.8 0 7.9-.3 9.6-1.7 10.4s-1 1 2.2 1c2.2 0 3.4-.3 2.8-.6C76.4 81 76 77.9 76 71s.4-10 1.3-10.3c.6-.3-.4-.5-2.3-.5s-2.9.2-2.2.5m14 1.3c-5.8 4.5-6.1 12.9-.7 17.4 3 2.6 4.7 3 10.4 2.7 3.1-.1 5.5-2.4 5.5-5-.1-1.2-.3-1.1-1.2.4-1.6 2.8-2.8 3.5-6.5 3.5-4.5 0-6.2-.9-7.8-4.1-2.9-5.6-1.2-12.8 3.6-15.5 1.7-.9 1.9-1.3.8-1.4-.9 0-2.8.9-4.1 2m11.4-.8c.9.7 1.8 2 2.1 2.8s.6.3.6-1.3c.1-2.1-.3-2.7-2.1-2.7-1.9 0-2 .2-.6 1.2m9.6-.5c.8.3 1.2 3.3 1.2 9.8 0 7.9-.3 9.6-1.7 10.4s.2 1 5.8 1.1c6.1 0 7.8-.3 8.3-1.6 1.1-3 .6-3.8-1-1.6-1.2 1.8-2.4 2.2-5.2 2-3.6-.3-3.7-.4-4-5l-.3-4.7 4.3-.4 4.3-.4-4.2-.1-4.3-.2v-9h3.8c3 0 4.1.5 5 2.2 1 2.3 1.1 2.3 1.1-.5l.1-2.7-7.2.1c-4 0-6.7.3-6 .6M12.3 92c0 3 .2 4.3.4 2.8.2-1.6.2-4 0-5.5-.2-1.6-.4-.3-.4 2.7m6.2-3.1c1.9 2.2 1.9 2.3.2 5.4l-1.8 3.2 2.2-2.2c1.9-1.9 2.1-2.7 1.4-4.9-.6-1.5-1.7-3-2.5-3.2-1.1-.4-.9.1.5 1.7M24 92c0 2.9.3 5.1.6 4.8.7-.8.8-8.8 0-9.5-.3-.4-.6 1.8-.6 4.7m8.7-4.3c-1.5 1.5-.5 3.3 2.6 4.8l3.2 1.6-2.9-2.4c-1.6-1.4-2.5-3-2.2-3.6.8-1.2.3-1.5-.7-.4m14.5.5c-1.7 1.7-1.5 6.3.5 7.9 1.5 1.3 1.5 1.2.2-.8-1.1-1.8-1.1-2.9-.2-5.3 1.3-3.4 1.2-3.5-.5-1.8m11.3-.2c.3.5.8 1 1.1 1 .2 0 .4-.5.4-1 0-.6-.5-1-1.1-1-.5 0-.7.4-.4 1m7.3 1.2c-.2 1.3-.1 3.6.3 5.3.5 2.4.7 2 .8-2.3.1-5.4-.4-6.8-1.1-3m8.2-1.3c0 .5.5 1.3 1 1.6.6.3 1 .2 1-.4 0-.5-.4-1.3-1-1.6-.5-.3-1-.2-1 .4m11.1 4c5.8 6.4 7.3 6.5 1.9.1-2.3-2.8-4.7-5-5.2-5-.6 0 .9 2.2 3.3 4.9m9.3-2.4c-1.4 2.1-1.5 3.1-.6 5 .7 1.4 1.6 2.5 2.2 2.5s.4-1-.4-2.3c-1.3-2-1.4-2.6-.1-5 1.7-3.4 1.1-3.5-1.1-.2m7.1-1.5c.3.5.8 1 1.1 1 .2 0 .4-.5.4-1 0-.6-.5-1-1.1-1-.5 0-.7.4-.4 1m5.3 2.7c.6 6.5 1 7 1.1 1.5 0-2.8-.3-5.2-.7-5.2s-.6 1.7-.4 3.7m8.9-3c-1.4 1.4-.6 3.4 1.9 4.5q2.55 1.2 2.1 3c-.3 1-.1 1.6.4 1.2 1.7-1 .9-3.2-1.7-4.9-1.5-1-2.3-2.2-2-3.1.6-1.5.3-1.8-.7-.7m3.8.3c.3.5.8 1 1.1 1 .2 0 .4-.5.4-1 0-.6-.5-1-1.1-1-.5 0-.7.4-.4 1m-43 5.5c.7 3.1 1.2 4.1 1.9 3.4.2-.2-.3-1.7-1.1-3.4l-1.4-3zm5.7.5c0 1.9.2 2.7.5 1.7.2-.9.2-2.5 0-3.5-.3-.9-.5-.1-.5 1.8m-10.6-.3c-.6 1.4-.5 1.5.5.6.7-.7 1-1.5.7-1.8s-.9.2-1.2 1.2m30.1 1.3c.3 1.1.7 2 .9 2s.4-.9.4-2-.4-2-.9-2-.7.9-.4 2"/>
</svg>
