<svg xmlns="http://www.w3.org/2000/svg" xmlns:xlink="http://www.w3.org/1999/xlink" xml:space="preserve" viewBox="0 0 1080 1024">
<defs>
<path id="a" d="M542.3 512.2c-56.2 0-101.8-45.6-101.8-101.8s45.6-101.8 101.8-101.8c24.1 0 46.3 8.4 63.7 22.4-2 1.1-4.2 1.7-6.4 1.7-2.4 0-4.9-.7-7.1-2.1-14.9-9.4-32.4-14.5-50.2-14.5-52 0-94.2 42.3-94.2 94.2 0 52 42.3 94.3 94.2 94.3 18 0 35.5-5.2 50.5-14.7 2.2-1.4 4.7-2.1 7.2-2.1 2.2 0 4.4.6 6.4 1.7-17.5 14.2-39.8 22.7-64.1 22.7"/>
</defs>
<clipPath id="b">
<use xlink:href="#a" style="overflow:visible"/>
</clipPath>
<linearGradient id="c" x1="71.953" x2="85.354" y1="825" y2="825" gradientTransform="matrix(12.379 0 0 -12.379 -450.168 10623.05)" gradientUnits="userSpaceOnUse">
<stop offset="0" style="stop-color:#2c5eaa"/>
<stop offset="1" style="stop-color:#2ebced"/>
</linearGradient>
<path d="M440.5 308.6h165.9v203.6H440.5z" style="clip-path:url(#b);fill:url(#c)"/>
<defs>
<path id="d" d="M542.3 531.3c-66.7 0-120.9-54.3-120.9-120.9 0-66.7 54.2-120.9 120.9-120.9 22.9 0 45.4 6.6 64.6 18.7 6.6 4.2 8.1 13.2 3.1 19.3l-.4.5c-1 1.2-2.2 2.3-3.6 3-17.4-14-39.6-22.4-63.7-22.4-56.2 0-101.8 45.6-101.8 101.8s45.6 101.8 101.8 101.8c24.3 0 46.6-8.5 64.1-22.7 1.4.8 2.6 1.8 3.7 3.1l.3.4c5 6.1 3.6 15.1-3 19.3-19.3 12.3-41.9 19-65.1 19"/>
</defs>
<clipPath id="f">
<use xlink:href="#d" style="overflow:visible"/>
</clipPath>
<linearGradient id="g" x1="79.343" x2="92.745" y1="838.704" y2="838.704" gradientTransform="rotate(122.523 5882.572 13734.808)scale(-30.31 30.31)" gradientUnits="userSpaceOnUse">
<stop offset="0" style="stop-color:#2c5eaa"/>
<stop offset="1" style="stop-color:#2ebced"/>
</linearGradient>
<path d="m311.8 461.4 165.7-259.9 247.6 157.9-165.8 259.9z" style="clip-path:url(#f);fill:url(#g)"/>
<defs>
<path id="h" d="M524 344.2h-.4zm-1.2 0h.1zm1.7 0h-.3zm-2 0h.1zm-.3 0h.2zm2.8.1h-.3c0-.1.2-.1.3 0m-3.1 0h.2zm3.5 0h-.4zm.5 0h-.3zm.5 0h-.3zm.5 0h-.3zm.4.1h-.3zm.5 0h-.3zm.5.1h-.4c.1-.1.3 0 .4 0m.4 0h-.4zm.5.1c-.1 0-.3 0-.4-.1.1 0 .3 0 .4.1m.5 0h-.4zm.4.1c-.1 0-.2 0-.4-.1.2.1.3.1.4.1m.5.1c-.1 0-.3 0-.4-.1.1 0 .3 0 .4.1m.4 0c-.1 0-.3 0-.4-.1.2.1.3.1.4.1m.5.1c-.1 0-.3 0-.4-.1.1.1.3.1.4.1m.5.1c-.1 0-.3 0-.4-.1.1 0 .2.1.4.1m.4.1c-.1 0-.3-.1-.4-.1.1 0 .3.1.4.1m.5.1c-.1 0-.3-.1-.4-.1.1 0 .2 0 .4.1m.4.1c-.1 0-.3-.1-.4-.1.1 0 .3 0 .4.1m.5.1c-.1 0-.3-.1-.4-.1.1 0 .2 0 .4.1m.4.1c-.1 0-.3-.1-.4-.1.1 0 .3 0 .4.1m.5.1c-.1 0-.3-.1-.4-.1.1 0 .2 0 .4.1m.4.1c-.1 0-.3-.1-.4-.1.1 0 .3.1.4.1m.5.1c-.1 0-.3-.1-.4-.1.1 0 .2.1.4.1m.4.1c-.1 0-.3-.1-.4-.1.1 0 .3.1.4.1m.4.1c-.1 0-.2-.1-.4-.1.2.1.3.1.4.1m.5.2c-.1 0-.2-.1-.4-.1.1 0 .2 0 .4.1m.4.1c-.1 0-.2-.1-.3-.1.1 0 .2.1.3.1m.4.1c-.1 0-.2-.1-.3-.1.1.1.2.1.3.1m2.9 1.1-2.4-.9h-.1c-.1 0-.2-.1-.3-.1.1 0 .2 0 .2.1.9.2 1.8.5 2.6.9m.4.1c-.1 0-.2-.1-.3-.1.1 0 .2.1.3.1m.3.2q0-.15 0 0 0-.15 0 0m-18 23.1h.2zm-.3 0h.2zm-.2 0h.2zm-.2 0h.2zm-.3.1h.2c-.1-.1-.1 0-.2 0m-.2 0h.2zm-.3 0h.2zm-.2 0h.2zm-.3 0h.2zm-.2.1h.2zm-.3 0h.2zm-8.5 3.4c2.5-1.8 5.4-3 8.6-3.4-3.2.4-6.1 1.7-8.6 3.4m55.1 1.2c0-.1-.1-.1 0 0-.1-.1 0-.1 0 0m.1.5c0-.1 0-.1-.1-.2.1 0 .1.1.1.2m.2.4c0-.1-.1-.2-.1-.3 0 .1 0 .2.1.3m.1.5c0-.1-.1-.2-.1-.3 0 0 .1.1.1.3m.2.5c0-.1-.1-.3-.1-.4 0 .1 0 .2.1.4m-90 5c2.6-15.3 12.8-28 26.5-34.3-.1 0-.1.1-.2.1 4-1.8 8.2-3.1 12.6-3.7h1.8c.5-.1 1.1-.1 1.6-.1h1.6c-2.4.1-4.8.4-7.1.8-3.7.7-7.2 1.8-10.5 3.4-2.5 1.2-4.9 2.5-7.1 4.1l-.1.1c-.1.1-.1.1-.2.1-.1.1-.1.1-.2.1l-.1.1c-.1.1-.2.1-.3.2-7.2 5.3-12.8 12.7-16 21.2-.1.1-.1.3-.2.4v.1c0 .1-.1.2-.1.4v.1c0 .1-.1.2-.1.3v.1c0 .1-.1.3-.1.4s0 .1-.1.2c0 .1 0 .2-.1.2 0 .1-.1.2-.1.3 0 0 0 .1-.1.1 0 .1-.1.2-.1.3v.1c0 .1-.1.2-.1.3v.1c-.6 1.3-.9 2.9-1.2 4.5m63.5.2c-2.9-6.8-9.5-11.6-17.2-11.9 7.8.3 14.4 5.2 17.2 11.9m-63.6.2c0-.1 0-.3.1-.4 0 .1 0 .2-.1.4m0 .4v-.2zm91.9 6.5c-.1-4.3-.7-8.4-1.8-12.4 1.1 4 1.7 8.2 1.8 12.4m0 .5v-.5zM523.5 410c10.8 0 19.5-8.7 19.5-19.5.1 10.7-8.7 19.5-19.5 19.5m-.2 18.2c-6.9 0-13.4-1.6-19.2-4.6v-26.9c0-.6 0-1.1-.1-1.2V392c.8 9.6 8.6 17.3 18.2 17.9l2.1.1c18.3 0 33.2-14.8 33.2-33.2 0-13.4-8-25-19.4-30.2 15.9 6 27.3 21.4 27.3 39.5.1 23.3-18.8 42.1-42.1 42.1m-1.7 8.4c-6.2-.3-12.1-1.8-17.5-4.2 5.3 2.5 11.2 4 17.5 4.2m.3 0h-.3zm.3.1h-.2zm.3 0h-.2zm.3 0h-.2zm.3 0h-.2zm.4 0h-.3z"/>
</defs>
<clipPath id="i">
<use xlink:href="#h" style="overflow:visible"/>
</clipPath>
<linearGradient id="j" x1="46.12" x2="59.521" y1="799.638" y2="799.638" gradientTransform="rotate(176.221 212.414 1605.091)scale(-3.4973 3.4973)" gradientUnits="userSpaceOnUse">
<stop offset="0" style="stop-color:#2c5eaa"/>
<stop offset="1" style="stop-color:#2ebced"/>
</linearGradient>
<path d="m471.8 344.6 97.6-6.4 6.5 98.1-97.6 6.4z" style="clip-path:url(#i);fill:url(#j)"/>
<defs>
<path id="k" d="m504.1 391.9-.1-1.5.1-1.3z"/>
</defs>
<clipPath id="l">
<use xlink:href="#k" style="overflow:visible"/>
</clipPath>
<linearGradient id="m" x1="-598.581" x2="-585.18" y1="1505.554" y2="1505.554" gradientTransform="matrix(0 -.2095 -.2095 0 819.51 266.512)" gradientUnits="userSpaceOnUse">
<stop offset="0" style="stop-color:#2c5eaa"/>
<stop offset="1" style="stop-color:#419ec6"/>
</linearGradient>
<path d="M504 389.1h.1v2.8h-.1z" style="clip-path:url(#l);fill:url(#m)"/>
<defs>
<path id="n" d="M497.1 352.5c2.2-1.6 4.6-2.9 7.1-4.1l-.2.1c-2.4 1.2-4.7 2.5-6.9 4m-.3.2c.1 0 .1-.1.2-.1 0 .1-.1.1-.2.1m-.3.3.1-.1s-.1 0-.1.1M480 375s0-.1 0 0c0-.1 0 0 0 0m-.2.4s.1 0 0 0c.1 0 0 0 0 0m-.1.5s0-.1 0 0c0-.1 0 0 0 0m-.2.6c0-.1 0-.1.1-.2-.1.1-.1.1-.1.2m-.2.5c0-.1.1-.2.1-.3 0 .1 0 .2-.1.3m-.1.4c0-.1.1-.2.1-.3 0 .1-.1.2-.1.3m-.1.5c0-.1.1-.2.1-.3-.1.1-.1.2-.1.3m-1.8 11.6v-.4c.1-1.9.2-3.8.5-5.7v-.4c0-.1 0-.3.1-.4.3-1.6.6-3.1 1-4.6-.9 3.6-1.5 7.5-1.6 11.5m26.6 34c-13.5-7-22.8-21.1-22.8-37.5s9.3-30.6 22.9-37.5l.2-.1c3.3-1.5 6.8-2.7 10.5-3.4 2.3-.5 4.7-.7 7.1-.8h6.8c.1 0 .3 0 .4.1h.6c.1 0 .3 0 .4.1h.1c.1 0 .3 0 .4.1h.1c.1 0 .3 0 .4.1h.1c.1 0 .3 0 .4.1.1 0 .3 0 .4.1.1 0 .3.1.4.1h.1c.1 0 .3.1.4.1s.3.1.4.1.3.1.4.1.3.1.4.1.3.1.4.1.3.1.4.1h.1c.1 0 .3.1.4.1h.1c.1 0 .3.1.4.1h.1c.1 0 .3.1.4.1h.1c.1 0 .2.1.4.1h.1c.1 0 .2.1.3.1h.1c.1 0 .2.1.3.1 0 0 .1 0 .1.1.1 0 .2.1.3.1h.1c11.5 5.2 19.4 16.8 19.4 30.2 0 18.3-14.9 33.2-33.2 33.2l-2.1-.1h1.2c10.8 0 19.5-8.8 19.5-19.5 0-2.7-.5-5.3-1.5-7.6-2.9-6.8-9.5-11.6-17.2-11.9h-3.7c-3.1.4-6.1 1.6-8.6 3.4l-.1.1s-.1 0-.1.1c-.1 0-.1.1-.2.1-4.4 3.3-7.4 8.5-7.8 14.4l-.1 1.3.1 1.5v3.5-.1c-.1 0-.1.4-.1 1.3.3 9.5.3 18.4.3 27.3M477.3 464v-73.5c0 18.6 10.9 34.6 26.7 41.9v5.4c-11.5-8-20.8-20.1-26.7-34.6z"/>
</defs>
<clipPath id="o">
<use xlink:href="#n" style="overflow:visible"/>
</clipPath>
<linearGradient id="p" x1="98.796" x2="112.198" y1="837.434" y2="837.434" gradientTransform="rotate(126.806 -2172.03 -6189.183)scale(14.679 -14.679)" gradientUnits="userSpaceOnUse">
<stop offset="0" style="stop-color:#2c5eaa"/>
<stop offset=".415" style="stop-color:#2ebced"/>
<stop offset="1" style="stop-color:#2c5eaa"/>
</linearGradient>
<path d="m615.1 387.2-86.3 115.3L419.9 421l86.3-115.3z" style="clip-path:url(#o);fill:url(#p)"/>
<defs>
<path id="q" d="M597.3 351.7c-6.8 0-12.4 5.5-12.4 12.4 0 6.8 5.5 12.4 12.4 12.4 6.8 0 12.4-5.5 12.4-12.4-.1-6.8-5.6-12.4-12.4-12.4"/>
</defs>
<clipPath id="r">
<use xlink:href="#q" style="overflow:visible"/>
</clipPath>
<linearGradient id="s" x1="74.75" x2="88.151" y1="835.447" y2="835.447" gradientTransform="rotate(128.802 2243.21 5834.333)scale(-12.6218 12.6218)" gradientUnits="userSpaceOnUse">
<stop offset="0" style="stop-color:#ffce01"/>
<stop offset="1" style="stop-color:#ec0f68"/>
</linearGradient>
<path d="m572.9 366.7 21.7-27 27.1 21.7-21.8 27.1z" style="clip-path:url(#r);fill:url(#s)"/>
<defs>
<path id="t" d="M583.6 399.2v66.1l.1 1.9c1 6.5 6.6 11.4 13.2 11.4 2.5 0 5-.7 7.2-2.1l1.4-1.1c3-2.5 4.8-6.3 4.8-10.2v-66.1h-26.7"/>
</defs>
<clipPath id="u">
<use xlink:href="#t" style="overflow:visible"/>
</clipPath>
<linearGradient id="v" x1="96.389" x2="109.79" y1="833.307" y2="833.307" gradientTransform="rotate(-87.58 -4251.666 3430)scale(-9.778 9.778)" gradientUnits="userSpaceOnUse">
<stop offset="0" style="stop-color:#ffce01"/>
<stop offset="1" style="stop-color:#ec0f68"/>
</linearGradient>
<path d="m613.7 399.3-3.4 80.5-30-1.3 3.4-80.5z" style="clip-path:url(#u);fill:url(#v)"/>
<defs>
<path id="z" d="M606.4 384.2c-2.5-2.5-5.9-3.9-9.4-3.9h-31.5c-6.5 0-12.1 4.8-13.1 11.3l-.1.6-.1 1.3v.3c0 7.3 5.9 13.3 13.2 13.3h44.9v-13.4c.1-3.6-1.3-7-3.9-9.5"/>
</defs>
<clipPath id="A">
<use xlink:href="#z" style="overflow:visible"/>
</clipPath>
<linearGradient id="B" x1="90.937" x2="104.338" y1="860.14" y2="860.14" gradientTransform="rotate(.882 344145.198 83185.743)scale(-6.6155 6.6155)" gradientUnits="userSpaceOnUse">
<stop offset="0" style="stop-color:#ffce01"/>
<stop offset="1" style="stop-color:#ec0f68"/>
</linearGradient>
<path d="m610.4 407.9-58.6-.9.5-27.6 58.5.9z" style="clip-path:url(#A);fill:url(#B)"/>
<defs>
<path id="C" d="M305.1 739c-12-.3-21.8-3.2-29.6-8.7-8-5.3-14.1-11.6-17.6-18.7-1.1-2.1-2.1-4.5-3-6.4-.9-2.3-1.6-5-2.2-8.2-1.1-6.2-1.6-18-1.6-35.3 0-17.6.5-29.6 1.6-35.5 1.1-6.1 2.9-10.9 5.2-14.6 3.6-7 9.6-13.2 17.6-18.7 8-5.7 18-8.6 30.1-8.6 9.8 0 18.2 1.8 25.2 5.5h-1.1c-12 .2-21.9 3-30 8.7-8.2 5.3-14.1 11.8-17.8 18.7l-1.6 3v.2c-2.1 2.8-3.6 6.4-4.3 10.5q-1.8 8.25-1.8 30.6c0 12.5.4 21.6 1.3 27.3v.2c.4 5.9.7 10.3 1.2 13.5s1.2 5.9 2.1 8 2 4.3 3 6.6c3.7 7.1 9.6 13.4 17.8 18.7 1.8 1.2 3.6 2.3 5.5 3.2"/>
</defs>
<clipPath id="D">
<use xlink:href="#C" style="overflow:visible"/>
</clipPath>
<linearGradient id="E" x1="-13.974" x2="-.573" y1="834.713" y2="834.713" gradientTransform="rotate(132.436 964.41 2483.445)scale(-5.0434 5.0434)" gradientUnits="userSpaceOnUse">
<stop offset="0" style="stop-color:#2c5eaa"/>
<stop offset="1" style="stop-color:#2ebced"/>
</linearGradient>
<path d="m174 668.5 113.4-124 120.5 110.2-113.4 124z" style="clip-path:url(#D);fill:url(#E)"/>
<defs>
<path id="F" d="M355.8 706.9c-.7 1.8-1.6 3.2-2.5 4.7-3.6 7.1-9.4 13.4-17.5 18.7-8 5.5-18 8.4-30.1 8.7h-.5c-2-.9-3.8-2-5.4-3-8.2-5.3-14.1-11.6-17.8-18.7q-1.65-3.45-3-6.6c-.9-2.2-1.6-4.8-2.1-8q-.75-4.8-1.2-13.5l.5 2.9c.9 5.3 2.9 9.6 5.9 12.8 2.5 3.2 5.7 5.7 9.6 7.7 3.9 2.3 8.6 3.4 14.1 3.4 2 0 3.7-.2 5.5-.5 1.2 1 2.9 2 4.5 2.8 3.9 2.3 8.6 3.4 14.1 3.4s10.1-1.1 14.2-3.4c3.9-2 7-4.4 9.3-7.7.8-1.2 1.6-2.5 2.4-3.7"/>
</defs>
<clipPath id="G">
<use xlink:href="#F" style="overflow:visible"/>
</clipPath>
<linearGradient id="H" x1="80.474" x2="93.876" y1="817.958" y2="817.958" gradientTransform="rotate(218.449 -4784.244 10930.702)scale(-27.022 27.022)" gradientUnits="userSpaceOnUse">
<stop offset="0" style="stop-color:#2c5eaa"/>
<stop offset="1" style="stop-color:#2ebced"/>
</linearGradient>
<path d="m306.6 650 73.5 58.4-55.4 69.6-73.5-58.3z" style="clip-path:url(#G);fill:url(#H)"/>
<defs>
<path id="I" d="M291.6 610.4c1-.5 2-1 3.1-1.3-1.1.4-2.1.8-3.1 1.3m38.1 111.1c-5.5 0-10.2-1.1-14.1-3.4-1.6-.9-3.2-1.8-4.5-2.8 3.2-.4 6.1-1.4 8.7-2.9 3.8-2 7-4.5 9.1-7.7 3-3.2 5.2-7.5 6.2-12.8 1.1-5.2 1.6-15.3 1.6-30.3s-.5-25.1-1.6-30.6c-1.1-5.2-3.2-9.3-6.2-12.7-1.2-1.8-2.9-3.4-4.6-4.8q-2.1-1.65-4.5-3c-4.1-2-8.9-3-14.3-3.2q-4.8.15-8.7 1.2c3-3.5 6.9-6.9 11.6-9.9 6.4-4.6 14.1-7.3 23.2-8.2l-.9-.5h-1.1c-12 .2-21.9 3-30 8.7-8.2 5.3-14.1 11.8-17.8 18.7l-1.6 3 1.6-3c3.7-7 9.6-13.4 17.8-18.7q12-8.55 30-8.7h1.1c1.8.9 3.4 2 5 3 8 5.5 13.9 11.8 17.5 18.7 2.5 3.8 4.3 8.6 5.4 14.6.3 2.5.7 5.9.7 10.5v.5c.4 6.3.5 14.4.5 24.4 0 17.3-.3 29.1-1.2 35.3-.7 3.7-1.6 7.1-2.8 10-.7 1.2-1.6 2.5-2.5 3.6-2.3 3.2-5.3 5.7-9.3 7.7-4.1 2.2-8.7 3.3-14.3 3.3"/>
</defs>
<clipPath id="J">
<use xlink:href="#I" style="overflow:visible"/>
</clipPath>
<linearGradient id="K" x1="207.044" x2="220.446" y1="788.492" y2="788.492" gradientTransform="rotate(105.945 -839.05 -1378.701)scale(3.8708 -3.8708)" gradientUnits="userSpaceOnUse">
<stop offset="0" style="stop-color:#2c5eaa"/>
<stop offset="1" style="stop-color:#2ebced"/>
</linearGradient>
<path d="m394.7 599.7-40.8 142.8-108.4-30.9 40.8-142.9z" style="clip-path:url(#J);fill:url(#K)"/>
<defs>
<path id="L" d="M294.7 609.1c.7-.3 1.5-.5 2.3-.7-.9.3-1.6.5-2.3.7"/>
</defs>
<clipPath id="M">
<use xlink:href="#L" style="overflow:visible"/>
</clipPath>
<radialGradient id="N" cx="95.638" cy="834.85" r="13.401" gradientTransform="matrix(169.76 0 0 -159.293 -14179.115 133764.469)" gradientUnits="userSpaceOnUse">
<stop offset="0" style="stop-color:#c1c3c5"/>
<stop offset=".431" style="stop-color:#c1c3c5"/>
<stop offset=".744" style="stop-color:#bbbdc0"/>
<stop offset="1" style="stop-color:#b2b4b7"/>
</radialGradient>
<path d="M294.7 608.4h2.3v.7h-2.3z" style="clip-path:url(#M);fill:url(#N)"/>
<defs>
<path id="O" d="m280.3 620.2 1.6-3c3.7-7 9.6-13.4 17.8-18.7q12-8.55 30-8.7h1.1l.9.5c-9.1.9-16.8 3.6-23.2 8.2-4.6 3-8.5 6.4-11.6 9.9-.8.2-1.5.4-2.3.7-1.1.4-2.1.8-3.1 1.3-3.9 2.1-7.1 4.8-9.6 7.8z"/>
</defs>
<clipPath id="P">
<use xlink:href="#O" style="overflow:visible"/>
</clipPath>
<linearGradient id="Q" x1="207.044" x2="220.446" y1="781.401" y2="781.401" gradientTransform="rotate(105.945 -839.05 -1378.701)scale(3.8708 -3.8708)" gradientUnits="userSpaceOnUse">
<stop offset="0" style="stop-color:#4f6092"/>
<stop offset="1" style="stop-color:#5e9ebc"/>
</linearGradient>
<path d="m339.8 592.1-12 41.7-55.5-15.9 11.9-41.7z" style="clip-path:url(#P);fill:url(#Q)"/>
<defs>
<path id="R" d="M386.8 585.5h21.7l43.7 99.2 42.8-99.2h21.9v152.3h-23.1v-95h-.5L461.4 716h-19.2l-31.9-73.2h-.4v95h-23.1z"/>
</defs>
<clipPath id="S">
<use xlink:href="#R" style="overflow:visible"/>
</clipPath>
<linearGradient id="T" x1="83.412" x2="96.814" y1="831.357" y2="831.357" gradientTransform="rotate(182.918 -2993.53 25445.38)scale(-60.5905 60.5905)" gradientUnits="userSpaceOnUse">
<stop offset="0" style="stop-color:#2c5eaa"/>
<stop offset="1" style="stop-color:#2ebced"/>
</linearGradient>
<path d="m387.1 578.9 137.5 7-8.1 158.5-137.4-7z" style="clip-path:url(#S);fill:url(#T)"/>
<defs>
<path id="U" d="M548.9 585.5h55.2c6 0 11.8.6 17.3 1.7 5.6 1.4 11.2 4.4 16.9 9 4.8 3.4 8.7 8.3 11.7 14.6 3.1 6.1 4.7 13.4 4.7 21.7 0 11.3-4 21.5-11.9 30.8-8.1 9.7-20.1 14.8-35.7 15H572v59.4h-23.1zm23.1 71h34.1c8.6-.1 15-2.8 19.3-7.9 4.1-5 6.2-10.6 6.2-16.7 0-5.1-.9-9.4-2.5-12.9-1.8-3.1-4.2-5.6-7.3-7.4-4.7-3-10.2-4.4-16.5-4.3H572z"/>
</defs>
<clipPath id="V">
<use xlink:href="#U" style="overflow:visible"/>
</clipPath>
<linearGradient id="W" x1="83.412" x2="96.814" y1="831.476" y2="831.476" gradientTransform="rotate(182.918 -2993.7 25446.394)scale(-60.5935 60.5935)" gradientUnits="userSpaceOnUse">
<stop offset="0" style="stop-color:#2c5eaa"/>
<stop offset="1" style="stop-color:#2ebced"/>
</linearGradient>
<path d="m549.2 580.1 113.3 5.8-8 157.3-113.3-5.8z" style="clip-path:url(#V);fill:url(#W)"/>
<defs>
<path id="X" d="M675.8 585.5h23.1v152.3h-23.1z"/>
</defs>
<clipPath id="Y">
<use xlink:href="#X" style="overflow:visible"/>
</clipPath>
<linearGradient id="Z" x1="83.412" x2="96.813" y1="831.54" y2="831.54" gradientTransform="matrix(60.51 3.084 3.084 -60.51 -7278.063 50702.84)" gradientUnits="userSpaceOnUse">
<stop offset="0" style="stop-color:#2c5eaa"/>
<stop offset="1" style="stop-color:#2ebced"/>
</linearGradient>
<path d="m675.8 584.3 30.8 1.6-7.8 153.1-30.8-1.6z" style="clip-path:url(#Y);fill:url(#Z)"/>
<defs>
<path id="aa" d="M698.8 558.9c0 6.4-5.1 11.6-11.5 11.6s-11.6-5.2-11.6-11.6 5.2-11.5 11.6-11.5c6.4-.1 11.5 5.1 11.5 11.5"/>
</defs>
<clipPath id="ac">
<use xlink:href="#aa" style="overflow:visible"/>
</clipPath>
<linearGradient id="ad" x1="80.425" x2="93.827" y1="831.623" y2="831.623" gradientTransform="rotate(144.74 3926.901 17943.47)scale(-40.895 40.895)" gradientUnits="userSpaceOnUse">
<stop offset="0" style="stop-color:#ffce01"/>
<stop offset="1" style="stop-color:#ec0f68"/>
</linearGradient>
<path d="m664.9 555 26.2-18.5 18.6 26.2-26.3 18.6z" style="clip-path:url(#ac);fill:url(#ad)"/>
<defs>
<path id="ae" d="M833.6 695.2c-3.4 14.2-9.7 25-19.1 32.6-9.7 7.5-21.1 11.3-34.4 11.3-12-.3-22-3.2-30-8.8-8.2-5.3-14.1-11.6-17.8-18.6q-1.65-3.45-3-6.6c-.8-2.2-1.5-4.9-2.1-8.2-1-6.1-1.6-17.9-1.6-35.3 0-17.7.5-29.5 1.6-35.5s2.8-10.8 5.1-14.5c3.7-7 9.6-13.3 17.8-18.8 8-5.6 18-8.4 30-8.6 14.7.2 26.7 4.5 35.9 13.1 9.3 8.6 15.1 19.3 17.5 32.1h-24.4c-1.9-6.1-5.3-11.3-10.2-15.7-5.2-4.1-11.4-6.2-18.8-6.4-5.4.1-10.1 1.2-14 3.2q-6 3.15-9.6 7.8-4.5 4.95-6 12.6c-1.1 5.4-1.7 15.7-1.7 30.6 0 15 .5 25.1 1.7 30.4q1.5 7.95 6 12.9c2.5 3.1 5.6 5.7 9.6 7.6 3.9 2.3 8.6 3.5 14 3.5 13 0 22.6-6.9 29-20.8h24.5"/>
</defs>
<clipPath id="af">
<use xlink:href="#ae" style="overflow:visible"/>
</clipPath>
<linearGradient id="ag" x1="83.412" x2="96.814" y1="831.611" y2="831.611" gradientTransform="matrix(60.508 3.0839 3.0839 -60.508 -7277.783 50700.82)" gradientUnits="userSpaceOnUse">
<stop offset="0" style="stop-color:#2c5eaa"/>
<stop offset="1" style="stop-color:#2ebced"/>
</linearGradient>
<path d="m726 578.7 115.5 5.9-8.2 159.9-115.5-5.9z" style="clip-path:url(#af);fill:url(#ag)"/>
</svg>
