<svg xmlns="http://www.w3.org/2000/svg" xml:space="preserve" viewBox="0 0 1000 248.1">
<path d="M17.25 113.58h9.63V59.7H12.56v12.21H0V48.2h67.02v23.71H54.46V59.7H40.14v53.88h9.63v11.85H17.25zm97.99-23.6-10.8-30.4-10.8 30.4zm-49.88 23.6h6.69L91.3 59.93h-8.45V48.2h43.66v11.74h-8.45l19.25 53.64H144v11.85h-29.7v-11.74h8.92l-4.35-12.67H90.01l-4.34 12.67h9.39v11.74h-29.7zm106.2-41.44v41.44h9.62v11.85h-31.34v-11.85h8.81V60.05h-8.81V48.2h20.08l38.02 48.47V60.05h-9.62V48.2h30.99v11.85h-8.45v65.5l-7.17.23zm66.52 14.91c0-23.83 18.08-40.26 40.61-40.26 17.96 0 29.93 9.39 29.93 18.67 0 5.63-3.64 9.5-8.45 9.5-5.28 0-8.92-3.28-8.92-8.33 0-1.52.35-3.05.82-3.99-2.23-1.76-6.69-3.52-13.74-3.52-15.02 0-26.52 11.15-26.52 27.82 0 17.02 12.32 27.94 25.35 27.94 8.1 0 13.73-1.77 18.66-4.94V96.67h-19.25V85.41h32.28v40.02h-12.67v-5.75c-5.4 4.23-12.32 7.16-21.01 7.16-19.01-.01-37.09-15.03-37.09-39.79m84.14 26.53h8.8V60.05h-8.8V48.2h57.63v22.06h-12.67V59.93h-22.89v20.66h23.35v11.27h-23.35v21.83h23v-10.32h12.68v22.06h-57.75zm114.3-41.55c0-8.1-6.68-11.97-17.37-11.97h-7.16v24.77c1.41.11 3.28.23 7.51.23 9.98-.01 17.02-4.94 17.02-13.03m-46.59 41.55h8.8V60.05h-8.8V48.2h29.93c17.73 0 30.4 7.63 30.4 23.36 0 9.98-6.1 17.61-14.55 21.01l11.85 21.01h8.8v11.85h-17.84l-15.5-29.34c-1.64.11-3.17.23-4.69.23-2.47 0-4.7 0-6.33-.12v17.38h9.62v11.85h-31.69zm97.98 0h9.15l2.47-53.53h-9.63V48.2h21.13l23.7 42.95 23.72-42.95h21v11.85h-9.62l2.46 53.53h9.16v11.85h-31.69v-11.85h9.27l-1.52-39.8-22.07 38.74h-1.76l-22.07-38.74-1.52 39.8h9.27v11.85h-31.45zm101.73 0h8.8V60.05h-8.8V48.2h57.63v22.06h-12.68V59.93h-22.88v20.66h23.35v11.27h-23.35v21.83h23v-10.32h12.68v22.06h-57.75zm97.4 0c19.95 0 30.29-10.8 30.29-27.35 0-16.9-11.97-26.17-31.23-26.17h-6.69v53.52zm-29.69 0h8.8V60.05h-8.8V48.2h29.23c27.93 0 44.48 14.55 44.48 37.91 0 23.59-15.61 39.32-45.9 39.32h-27.82v-11.85zm255.62 91.73c-.88 0-1.73-.1-2.61-.13 35.14-9.26 61.22-40.97 61.83-78.84h21.02c-.72 43.66-36.41 78.97-80.24 78.97m-23.71 0c-.88 0-1.73-.1-2.61-.13.87-.23 1.75-.42 2.61-.67.86.25 1.74.44 2.61.67-.88.02-1.73.13-2.61.13m-26.32-.13c.87-.23 1.75-.42 2.61-.67.85.25 1.74.44 2.61.67-.87.03-1.73.13-2.61.13s-1.74-.11-2.61-.13m-21.11.13c-43.83 0-79.52-35.31-80.25-78.97h21.02c.61 37.87 26.69 69.57 61.83 78.84-.86.02-1.72.13-2.6.13m0-160.63c.88 0 1.73.1 2.61.13-35.14 9.26-61.22 40.97-61.83 78.84h-21.02c.72-43.66 36.41-78.97 80.24-78.97m23.72 0c.88 0 1.73.1 2.61.13-.87.23-1.75.41-2.61.67-.86-.26-1.74-.44-2.61-.67.87-.02 1.73-.13 2.61-.13m26.32.13c-.87.23-1.75.41-2.61.67-.85-.26-1.74-.44-2.61-.67.87-.03 1.73-.13 2.61-.13s1.73.11 2.61.13m56.62 78.84c-.57-35.23-23.18-65.11-54.62-76.57 2.38-.58 4.79-1.05 7.24-1.42 38.23 5.7 67.73 38.35 68.39 77.99zm0 2.69h21.02c-.66 39.64-30.16 72.29-68.39 77.99-2.45-.37-4.87-.83-7.24-1.42 31.43-11.46 54.04-41.34 54.61-76.57m-67.99 72.04c25.96-13.73 43.77-40.81 44.27-72.04h21.02c-.59 35.44-24.2 65.37-56.53 75.39-3.01-.94-5.92-2.08-8.76-3.35m-1.61 2.21c1.88.85 3.81 1.61 5.76 2.32-1.9.46-3.81.86-5.76 1.19zm-2.69-.13v3.69c-2.04-.34-4.05-.75-6.04-1.23 2.05-.75 4.07-1.56 6.04-2.46m-67.19-74.12h21.02c.5 31.24 18.31 58.32 44.27 72.04-2.84 1.27-5.76 2.41-8.76 3.34-32.33-10.01-55.94-39.94-56.53-75.38m-2.69 0c.57 35.23 23.18 65.11 54.62 76.57-2.38.58-4.79 1.05-7.24 1.42-38.23-5.7-67.73-38.35-68.39-77.99zm0-2.69H785.3c.66-39.64 30.16-72.29 68.39-77.99 2.45.37 4.87.83 7.24 1.42-31.44 11.46-54.04 41.35-54.61 76.57m67.99-72.05c-25.96 13.73-43.77 40.81-44.28 72.05h-21.02c.59-35.44 24.2-65.37 56.53-75.39 3.01.94 5.92 2.08 8.77 3.34m1.89-2.07c-1.97-.9-3.99-1.71-6.04-2.46 1.99-.49 4-.9 6.04-1.23zm2.69-.13v-3.51c1.95.33 3.86.72 5.76 1.19-1.95.71-3.88 1.46-5.76 2.32m0 74.25V53.81c25.29 13.22 42.68 39.49 43.19 69.84zm0 2.69h43.19c-.51 30.34-17.9 56.61-43.19 69.84zm-46.17-2.69c.51-30.45 18.03-56.8 43.47-69.97v69.97zm43.48 2.69v69.97c-25.44-13.17-42.96-39.52-43.47-69.97zm48.57-2.69c-.5-31.24-18.31-58.32-44.28-72.05 2.85-1.26 5.76-2.41 8.76-3.34 32.33 10.01 55.95 39.95 56.53 75.39zm-11.8-78.97c43.83 0 79.52 35.31 80.25 78.97H972.2c-.61-37.87-26.69-69.57-61.83-78.84.87-.02 1.72-.13 2.6-.13m87.03 78.97h-4.09c-.73-45.15-37.62-81.66-82.94-81.66-4.03 0-7.97.39-11.86.95-3.88-.56-7.82-.95-11.86-.95-3.52 0-6.96.29-10.37.72v-8.02h-2.69v8.07c-3.49-.45-7.03-.76-10.65-.76-4.04 0-7.97.39-11.86.95-3.88-.56-7.82-.95-11.86-.95-45.32 0-82.21 36.51-82.94 81.66h-3.81v2.69h3.81c.73 45.15 37.62 81.66 82.94 81.66 4.03 0 7.97-.39 11.86-.95 3.88.56 7.82.95 11.86.95 3.62 0 7.16-.31 10.65-.76v14.27h2.69V207.3c3.4.43 6.85.72 10.37.72 4.03 0 7.97-.39 11.86-.95 3.88.56 7.82.95 11.86.95 45.32 0 82.21-36.51 82.94-81.66h4.09zm-833.7 59.36c-6.33-1.66-9.58-5.53-9.58-11.18 0-6.93 5.22-12.64 16.7-12.64 6.02 0 11.79 1.6 14.98 3.31l-2.46 8.05c-3.07-1.97-8.29-3.5-12.83-3.5-5.28 0-7.49 1.66-7.49 4.06 0 2.27 1.54 3.19 4.55 4.05l7.73 2.21c7.55 2.15 11.24 5.59 11.24 11.54 0 7.86-6.94 13.2-17 13.2-6.08 0-12.03-2.08-14.73-3.62l2.02-8.16c3.01 1.96 7.86 3.93 12.89 3.93s7.86-1.91 7.86-4.66c0-2.28-2.21-3.37-5.95-4.42zm41.79-15.78v15.22h10.01c4.24 0 7.61-2.89 7.61-7.55 0-4.97-3.37-7.67-7.61-7.67zm-8.59-7.49h19.95c8.17 0 15.16 4.79 15.16 15.23 0 9.39-7 14.98-15.16 14.98h-11.36v11.54h-8.59zm44.55 41.75v-41.75h33.03v7.55h-24.81v9.02h20.32v7.56h-20.32v10.06h24.81v7.56zm79.25-6.15c-3.75 3.56-10.2 6.75-17.14 6.75-12.34 0-21.48-7.98-21.48-21.42 0-13.57 9.14-21.55 21.48-21.55 10.75 0 16.82 6.01 17.07 15.77l-7.92 1.66c-.12-5.83-3.07-9.45-9.27-9.45-7.36 0-12.46 4.91-12.46 13.57 0 8.53 5.1 13.45 12.77 13.45 5.16 0 9.82-2.4 12.89-5.22zm10.17-35.6h8.59v41.75h-8.59zm30.44 27.01h14.61l-7.12-18.48zm2.46-27.01h10.07l16.14 41.75h-8.72l-3.19-8.35H361.7l-3.25 8.35h-8.72zm34.12 41.75v-41.75h8.59v34.25h21.67v7.5zm62.85-14.74h14.61l-7.12-18.48zm2.45-27.01h10.07L492 201.49h-8.72l-3.19-8.35h-18.97l-3.25 8.35h-8.72zm70.89 17.07v19.59c-3.86 3.07-11.41 5.71-17.8 5.71-12.34 0-22.22-7.98-22.22-21.42 0-13.57 9.88-21.55 22.22-21.55 6.75 0 12.03 2.27 16.21 5.65l-4 6.57c-3.25-2.71-7.12-4.24-12.03-4.24-7.62 0-13.51 4.91-13.51 13.57 0 8.53 5.9 13.45 13.88 13.45 3.32 0 6.39-.86 8.66-2.21v-7.67H517.1v-7.43h19.58zm11.17 24.68v-41.75h33.02v7.55h-24.8v9.02h20.32v7.56h-20.32v10.06h24.8v7.56zm52.16-28.06v28.06h-8.59v-41.75h7.48l23.46 28.11v-28.11h8.59v41.75h-7.49zm80.1 21.91c-3.74 3.56-10.19 6.75-17.13 6.75-12.33 0-21.48-7.98-21.48-21.42 0-13.57 9.15-21.55 21.48-21.55 10.75 0 16.82 6.01 17.07 15.77l-7.92 1.66c-.12-5.83-3.07-9.45-9.27-9.45-7.37 0-12.46 4.91-12.46 13.57 0 8.53 5.09 13.45 12.77 13.45 5.15 0 9.82-2.4 12.89-5.22zm20.43-10.37-16.32-24.62v-.61h9.57l11.05 17.31 11.05-17.31h9.58v.61l-16.34 24.56v16.58h-8.59z" style="fill:#fff"/>
<path d="M17.25-212.72h9.63v-53.88H12.56v12.21H0v-23.71h67.02v23.71H54.46v-12.21H40.14v53.88h9.63v11.85H17.25zm97.99-23.6-10.8-30.4-10.8 30.4zm-49.88 23.6h6.69l19.25-53.64h-8.45v-11.74h43.66v11.74h-8.45l19.25 53.64H144v11.85h-29.7v-11.74h8.92l-4.35-12.67H90.01l-4.34 12.67h9.39v11.74h-29.7zm106.2-41.44v41.44h9.62v11.85h-31.34v-11.85h8.81v-53.52h-8.81v-11.86h20.08l38.02 48.47v-36.61h-9.62v-11.86h30.99v11.86h-8.45v65.49l-7.17.23zm66.52 14.91c0-23.83 18.08-40.26 40.61-40.26 17.96 0 29.93 9.39 29.93 18.67 0 5.63-3.64 9.5-8.45 9.5-5.28 0-8.92-3.28-8.92-8.33 0-1.52.35-3.05.82-3.99-2.23-1.76-6.69-3.52-13.74-3.52-15.02 0-26.52 11.15-26.52 27.82 0 17.02 12.32 27.94 25.35 27.94 8.1 0 13.73-1.77 18.66-4.94v-13.26h-19.25v-11.27h32.28v40.02h-12.67v-5.75c-5.4 4.23-12.32 7.16-21.01 7.16-19.01 0-37.09-15.03-37.09-39.79m84.14 26.53h8.8v-53.52h-8.8v-11.86h57.63v22.06h-12.67v-10.32h-22.89v20.65h23.35v11.27h-23.35v21.83h23v-10.32h12.68v22.06h-57.75zm114.3-41.55c0-8.1-6.68-11.97-17.37-11.97h-7.16v24.77c1.41.11 3.28.23 7.51.23 9.98-.01 17.02-4.93 17.02-13.03m-46.59 41.55h8.8v-53.52h-8.8v-11.85h29.93c17.73 0 30.4 7.63 30.4 23.36 0 9.98-6.1 17.61-14.55 21.01l11.85 21.01h8.8v11.85h-17.84l-15.5-29.34c-1.64.11-3.17.23-4.69.23-2.47 0-4.7 0-6.33-.12v17.38h9.62v11.85h-31.69zm97.98 0h9.15l2.47-53.52h-9.63v-11.86h21.13l23.7 42.95 23.72-42.95h21v11.86h-9.62l2.46 53.52h9.16v11.85h-31.69v-11.85h9.27l-1.52-39.79-22.07 38.73h-1.76l-22.07-38.73-1.52 39.79h9.27v11.85h-31.45zm101.73 0h8.8v-53.52h-8.8v-11.86h57.63v22.06h-12.68v-10.32h-22.88v20.65h23.35v11.27h-23.35v21.83h23v-10.32h12.68v22.06h-57.75zm97.4 0c19.95 0 30.29-10.8 30.29-27.35 0-16.9-11.97-26.17-31.23-26.17h-6.69v53.52zm-29.69 0h8.8v-53.52h-8.8v-11.85h29.23c27.93 0 44.48 14.55 44.48 37.91 0 23.59-15.61 39.32-45.9 39.32h-27.82v-11.86zm255.62 91.73c-.88 0-1.73-.1-2.61-.13 35.14-9.26 61.22-40.97 61.83-78.84h21.02c-.72 43.66-36.41 78.97-80.24 78.97m-23.71 0c-.88 0-1.73-.1-2.61-.13.87-.23 1.75-.42 2.61-.67.86.25 1.74.44 2.61.67-.88.03-1.73.13-2.61.13m-26.32-.13c.87-.23 1.75-.42 2.61-.67.85.25 1.74.44 2.61.67-.87.03-1.73.13-2.61.13s-1.74-.1-2.61-.13m-21.11.13c-43.83 0-79.52-35.31-80.25-78.97h21.02c.61 37.87 26.69 69.57 61.83 78.84-.86.03-1.72.13-2.6.13m0-160.63c.88 0 1.73.1 2.61.13-35.14 9.26-61.22 40.97-61.83 78.84h-21.02c.72-43.66 36.41-78.97 80.24-78.97m23.72 0c.88 0 1.73.1 2.61.13-.87.23-1.75.41-2.61.67-.86-.26-1.74-.44-2.61-.67.87-.02 1.73-.13 2.61-.13m26.32.14c-.87.23-1.75.41-2.61.67-.85-.26-1.74-.44-2.61-.67.87-.03 1.73-.13 2.61-.13.88-.01 1.73.1 2.61.13m56.62 78.83c-.57-35.23-23.18-65.11-54.62-76.57 2.38-.58 4.79-1.05 7.24-1.42 38.23 5.7 67.73 38.35 68.39 77.99zm0 2.69h21.02c-.66 39.64-30.16 72.29-68.39 77.99-2.45-.37-4.87-.83-7.24-1.42 31.43-11.46 54.04-41.34 54.61-76.57m-67.99 72.05c25.96-13.73 43.77-40.81 44.27-72.04h21.02c-.59 35.44-24.2 65.37-56.53 75.39-3.01-.94-5.92-2.09-8.76-3.35m-1.61 2.21c1.88.85 3.81 1.61 5.76 2.32-1.9.46-3.81.86-5.76 1.19zm-2.69-.14v3.69c-2.04-.34-4.05-.75-6.04-1.23 2.05-.75 4.07-1.56 6.04-2.46m-67.19-74.12h21.02c.5 31.24 18.31 58.32 44.27 72.04-2.84 1.27-5.76 2.41-8.76 3.34-32.33-10-55.94-39.93-56.53-75.38m-2.69 0c.57 35.23 23.18 65.11 54.62 76.57-2.38.58-4.79 1.05-7.24 1.42-38.23-5.7-67.73-38.35-68.39-77.99zm0-2.69H785.3c.66-39.64 30.16-72.29 68.39-77.99 2.45.37 4.87.83 7.24 1.42-31.44 11.46-54.04 41.35-54.61 76.57m67.99-72.04c-25.96 13.73-43.77 40.81-44.28 72.05h-21.02c.59-35.44 24.2-65.37 56.53-75.39 3.01.93 5.92 2.07 8.77 3.34m1.89-2.07c-1.97-.9-3.99-1.71-6.04-2.46 1.99-.49 4-.9 6.04-1.23zm2.69-.14v-3.51c1.95.33 3.86.72 5.76 1.19-1.95.71-3.88 1.47-5.76 2.32m0 74.25v-69.84c25.29 13.22 42.68 39.49 43.19 69.84zm0 2.69h43.19c-.51 30.34-17.9 56.61-43.19 69.84zm-46.17-2.69c.51-30.45 18.03-56.8 43.47-69.97v69.97zm43.48 2.69v69.97c-25.44-13.17-42.96-39.52-43.47-69.97zm48.57-2.69c-.5-31.24-18.31-58.32-44.28-72.05 2.85-1.26 5.76-2.41 8.76-3.34 32.33 10.01 55.95 39.95 56.53 75.39zm-11.8-78.97c43.83 0 79.52 35.31 80.25 78.97H972.2c-.61-37.87-26.69-69.57-61.83-78.84.87-.02 1.72-.13 2.6-.13m87.03 78.97h-4.09c-.73-45.15-37.62-81.66-82.94-81.66-4.03 0-7.97.39-11.86.95-3.88-.56-7.82-.95-11.86-.95-3.52 0-6.96.29-10.37.72v-8.02h-2.69v8.07c-3.49-.45-7.03-.76-10.65-.76-4.04 0-7.97.39-11.86.95-3.88-.56-7.82-.95-11.86-.95-45.32 0-82.21 36.51-82.94 81.66h-3.81v2.69h3.81c.73 45.15 37.62 81.66 82.94 81.66 4.03 0 7.97-.39 11.86-.95 3.88.56 7.82.95 11.86.95 3.62 0 7.16-.31 10.65-.76v14.27h2.69V-119c3.4.43 6.85.72 10.37.72 4.03 0 7.97-.39 11.86-.95 3.88.56 7.82.95 11.86.95 45.32 0 82.21-36.51 82.94-81.66h4.09zm-833.7 59.36c-6.33-1.66-9.58-5.53-9.58-11.18 0-6.93 5.22-12.64 16.7-12.64 6.02 0 11.79 1.6 14.98 3.31l-2.46 8.05c-3.07-1.97-8.29-3.5-12.83-3.5-5.28 0-7.49 1.66-7.49 4.06 0 2.27 1.54 3.19 4.55 4.05l7.73 2.21c7.55 2.15 11.24 5.59 11.24 11.54 0 7.86-6.94 13.2-17 13.2-6.08 0-12.03-2.08-14.73-3.62l2.02-8.16c3.01 1.96 7.86 3.93 12.89 3.93s7.86-1.91 7.86-4.66c0-2.28-2.21-3.37-5.95-4.42zm41.79-15.78v15.22h10.01c4.24 0 7.61-2.89 7.61-7.55 0-4.97-3.37-7.67-7.61-7.67zm-8.59-7.49h19.95c8.17 0 15.16 4.79 15.16 15.23 0 9.39-7 14.98-15.16 14.98h-11.36v11.54h-8.59zm44.55 41.75v-41.75h33.03v7.55h-24.81v9.02h20.32v7.56h-20.32v10.07h24.81v7.55zm79.25-6.14c-3.75 3.56-10.2 6.75-17.14 6.75-12.34 0-21.48-7.98-21.48-21.42 0-13.57 9.14-21.55 21.48-21.55 10.75 0 16.82 6.01 17.07 15.77l-7.92 1.66c-.12-5.83-3.07-9.45-9.27-9.45-7.36 0-12.46 4.91-12.46 13.57 0 8.53 5.1 13.45 12.77 13.45 5.16 0 9.82-2.4 12.89-5.22zm10.17-35.61h8.59v41.75h-8.59zm30.44 27.02h14.61l-7.12-18.48zm2.46-27.02h10.07l16.14 41.75h-8.72l-3.19-8.35H361.7l-3.25 8.35h-8.72zm34.12 41.75v-41.75h8.59v34.26h21.67v7.49zm62.85-14.73h14.61l-7.12-18.48zm2.45-27.02h10.07L492-124.81h-8.72l-3.19-8.35h-18.97l-3.25 8.35h-8.72zm70.89 17.07v19.59c-3.86 3.07-11.41 5.71-17.8 5.71-12.34 0-22.22-7.98-22.22-21.42 0-13.57 9.88-21.55 22.22-21.55 6.75 0 12.03 2.27 16.21 5.65l-4 6.57c-3.25-2.71-7.12-4.24-12.03-4.24-7.62 0-13.51 4.91-13.51 13.57 0 8.53 5.9 13.45 13.88 13.45 3.32 0 6.39-.86 8.66-2.21v-7.67H517.1v-7.43h19.58zm11.17 24.68v-41.75h33.02v7.55h-24.8v9.02h20.32v7.56h-20.32v10.07h24.8v7.55zm52.16-28.06v28.06h-8.59v-41.75h7.48l23.46 28.11v-28.11h8.59v41.75h-7.49zm80.1 21.92c-3.74 3.56-10.19 6.75-17.13 6.75-12.33 0-21.48-7.98-21.48-21.42 0-13.57 9.15-21.55 21.48-21.55 10.75 0 16.82 6.01 17.07 15.77l-7.92 1.66c-.12-5.83-3.07-9.45-9.27-9.45-7.37 0-12.46 4.91-12.46 13.57 0 8.53 5.09 13.45 12.77 13.45 5.15 0 9.82-2.4 12.89-5.22zm20.43-10.38-16.32-24.62v-.61h9.57l11.05 17.31 11.05-17.31h9.58v.61l-16.34 24.56v16.58h-8.59z" style="fill:#0d1c2c"/>
</svg>
